<?xml version="1.0" encoding="UTF-8" standalone="no"?>
<!-- Created with Inkscape (http://www.inkscape.org/) -->

<svg
   xmlns:dc="http://purl.org/dc/elements/1.1/"
   xmlns:cc="http://creativecommons.org/ns#"
   xmlns:rdf="http://www.w3.org/1999/02/22-rdf-syntax-ns#"
   xmlns:svg="http://www.w3.org/2000/svg"
   xmlns="http://www.w3.org/2000/svg"
   xmlns:sodipodi="http://sodipodi.sourceforge.net/DTD/sodipodi-0.dtd"
   xmlns:inkscape="http://www.inkscape.org/namespaces/inkscape"
   width="1000"
   height="500"
   viewBox="0 0 1000 500.00001"
   id="svg2"
   version="1.1"
   inkscape:version="0.91 r13725"
   sodipodi:docname="example.svg">
  <defs
     id="defs4">
    <filter
       style="color-interpolation-filters:sRGB;"
       inkscape:label="Drop Shadow"
       id="filter7245">
      <feFlood
         flood-opacity="0.498039"
         flood-color="rgb(0,0,0)"
         result="flood"
         id="feFlood7247" />
      <feComposite
         in="flood"
         in2="SourceGraphic"
         operator="in"
         result="composite1"
         id="feComposite7249" />
      <feGaussianBlur
         in="composite1"
         stdDeviation="3"
         result="blur"
         id="feGaussianBlur7251" />
      <feOffset
         dx="6"
         dy="6"
         result="offset"
         id="feOffset7253" />
      <feComposite
         in="offset"
         in2="SourceGraphic"
         operator="out"
         result="fbSourceGraphic"
         id="feComposite7255" />
      <feColorMatrix
         result="fbSourceGraphicAlpha"
         in="fbSourceGraphic"
         values="0 0 0 -1 0 0 0 0 -1 0 0 0 0 -1 0 0 0 0 1 0"
         id="feColorMatrix7257" />
      <feFlood
         id="feFlood7259"
         flood-opacity="0.498039"
         flood-color="rgb(0,0,0)"
         result="flood"
         in="fbSourceGraphic" />
      <feComposite
         id="feComposite7261"
         in2="fbSourceGraphic"
         in="flood"
         operator="in"
         result="composite1" />
      <feGaussianBlur
         id="feGaussianBlur7263"
         in="composite1"
         stdDeviation="3"
         result="blur" />
      <feOffset
         id="feOffset7265"
         dx="6"
         dy="6"
         result="offset" />
      <feComposite
         id="feComposite7267"
         in2="fbSourceGraphic"
         in="offset"
         operator="out"
         result="composite2" />
    </filter>
  </defs>
  <sodipodi:namedview
     id="base"
     pagecolor="#ffffff"
     bordercolor="#666666"
     borderopacity="1.0"
     inkscape:pageopacity="0.0"
     inkscape:pageshadow="2"
     inkscape:zoom="0.70710678"
     inkscape:cx="736.24551"
     inkscape:cy="153.67478"
     inkscape:document-units="px"
     inkscape:current-layer="layer1"
     showgrid="false"
     units="px"
     width="1000px"
     inkscape:snap-bbox="true"
     inkscape:bbox-paths="true"
     inkscape:bbox-nodes="true"
     inkscape:snap-bbox-edge-midpoints="true"
     inkscape:snap-bbox-midpoints="true"
     inkscape:snap-intersection-paths="true"
     inkscape:object-paths="true"
     inkscape:object-nodes="true"
     inkscape:snap-smooth-nodes="true"
     inkscape:snap-midpoints="true"
     inkscape:snap-object-midpoints="true"
     inkscape:snap-center="true"
     inkscape:snap-page="true"
     inkscape:window-width="1920"
     inkscape:window-height="1017"
     inkscape:window-x="1280"
     inkscape:window-y="30"
     inkscape:window-maximized="1"
     showguides="false"
     inkscape:snap-global="false" />
  <metadata
     id="metadata7">
    <rdf:RDF>
      <cc:Work
         rdf:about="">
        <dc:format>image/svg+xml</dc:format>
        <dc:type
           rdf:resource="http://purl.org/dc/dcmitype/StillImage" />
        <dc:title></dc:title>
      </cc:Work>
    </rdf:RDF>
  </metadata>
  <g
     inkscape:label="Layer 1"
     inkscape:groupmode="layer"
     id="layer1"
     transform="translate(0,-552.36214)">
    <g
       id="g7089">
      <rect
         ry="8.5714302"
         y="632.36212"
         x="129.50258"
         height="320"
         width="300"
         id="rect7548"
         style="fill:#e6e6e6;fill-opacity:1;stroke:#d7e3e7;stroke-width:0.30000001;stroke-miterlimit:4;stroke-dasharray:none;stroke-opacity:1" />
      <path
         style="fill:none;fill-opacity:1;fill-rule:evenodd;stroke:#d7e3e7;stroke-width:1px;stroke-linecap:butt;stroke-linejoin:miter;stroke-opacity:1"
         d="m 157.50258,632.36212 0,320"
         id="path7880"
         inkscape:connector-curvature="0" />
      <path
         style="fill:none;fill-opacity:1;fill-rule:evenodd;stroke:#d7e3e7;stroke-width:1px;stroke-linecap:butt;stroke-linejoin:miter;stroke-opacity:1"
         d="m 181.50258,632.36212 0,320"
         id="path7884"
         inkscape:connector-curvature="0" />
      <path
         inkscape:connector-curvature="0"
         id="path7890"
         d="m 241.50258,632.36212 0,320"
         style="fill:none;fill-opacity:1;fill-rule:evenodd;stroke:#d7e3e7;stroke-width:1px;stroke-linecap:butt;stroke-linejoin:miter;stroke-opacity:1" />
      <path
         style="fill:none;fill-opacity:1;fill-rule:evenodd;stroke:#d7e3e7;stroke-width:1px;stroke-linecap:butt;stroke-linejoin:miter;stroke-opacity:1"
         d="m 301.50258,632.36212 0,320"
         id="path7896"
         inkscape:connector-curvature="0" />
      <path
         inkscape:connector-curvature="0"
         id="path7902"
         d="m 361.50258,632.36212 0,320"
         style="fill:none;fill-opacity:1;fill-rule:evenodd;stroke:#d7e3e7;stroke-width:1px;stroke-linecap:butt;stroke-linejoin:miter;stroke-opacity:1" />
      <path
         style="fill:none;fill-opacity:1;fill-rule:evenodd;stroke:#d7e3e7;stroke-width:1px;stroke-linecap:butt;stroke-linejoin:miter;stroke-opacity:1"
         d="m 129.50258,660.36212 299.99998,0"
         id="path7944"
         inkscape:connector-curvature="0" />
      <path
         style="fill:none;fill-opacity:1;fill-rule:evenodd;stroke:#d7e3e7;stroke-width:1px;stroke-linecap:butt;stroke-linejoin:miter;stroke-opacity:1"
         d="m 129.50258,684.36212 299.99998,0"
         id="path7948"
         inkscape:connector-curvature="0" />
      <path
         inkscape:connector-curvature="0"
         id="path7954"
         d="m 129.50258,744.36212 299.99998,0"
         style="fill:none;fill-opacity:1;fill-rule:evenodd;stroke:#d7e3e7;stroke-width:1px;stroke-linecap:butt;stroke-linejoin:miter;stroke-opacity:1" />
      <path
         style="fill:none;fill-opacity:1;fill-rule:evenodd;stroke:#d7e3e7;stroke-width:1px;stroke-linecap:butt;stroke-linejoin:miter;stroke-opacity:1"
         d="m 129.50258,804.36212 299.99998,0"
         id="path7960"
         inkscape:connector-curvature="0" />
      <path
         style="fill:none;fill-rule:evenodd;stroke:#c1d3d9;stroke-width:1px;stroke-linecap:butt;stroke-linejoin:miter;stroke-opacity:1;fill-opacity:1"
         d="m 129.50258,852.36212 299.99998,0"
         id="path7964"
         inkscape:connector-curvature="0" />
      <path
         inkscape:connector-curvature="0"
         id="path7966"
         d="m 129.50258,852.36212 299.99998,0"
         style="fill:none;fill-opacity:1;fill-rule:evenodd;stroke:#d7e3e7;stroke-width:1px;stroke-linecap:butt;stroke-linejoin:miter;stroke-opacity:1" />
      <path
         inkscape:connector-curvature="0"
         id="path7986"
         d="m 193.50258,632.36212 0,320"
         style="fill:none;fill-opacity:1;fill-rule:evenodd;stroke:#d7e3e7;stroke-width:1px;stroke-linecap:butt;stroke-linejoin:miter;stroke-opacity:1" />
      <path
         style="fill:none;fill-opacity:1;fill-rule:evenodd;stroke:#d7e3e7;stroke-width:1px;stroke-linecap:butt;stroke-linejoin:miter;stroke-opacity:1"
         d="m 205.50258,632.36212 0,320"
         id="path7988"
         inkscape:connector-curvature="0" />
      <path
         inkscape:connector-curvature="0"
         id="path7990"
         d="m 217.50258,632.36212 0,320"
         style="fill:none;fill-opacity:1;fill-rule:evenodd;stroke:#d7e3e7;stroke-width:1px;stroke-linecap:butt;stroke-linejoin:miter;stroke-opacity:1" />
      <path
         inkscape:connector-curvature="0"
         id="path7994"
         d="m 129.50258,648.36212 299.99998,0"
         style="fill:none;fill-opacity:1;fill-rule:evenodd;stroke:#d7e3e7;stroke-width:1px;stroke-linecap:butt;stroke-linejoin:miter;stroke-opacity:1" />
      <path
         sodipodi:nodetypes="ccccc"
         inkscape:connector-curvature="0"
         id="path7996"
         d="m 131.15484,635.86133 -0.63147,1 297.95842,0 -0.63147,-1 z"
         style="color:#000000;font-style:normal;font-variant:normal;font-weight:normal;font-stretch:normal;font-size:medium;line-height:normal;font-family:sans-serif;text-indent:0;text-align:start;text-decoration:none;text-decoration-line:none;text-decoration-style:solid;text-decoration-color:#000000;letter-spacing:normal;word-spacing:normal;text-transform:none;direction:ltr;block-progression:tb;writing-mode:lr-tb;baseline-shift:baseline;text-anchor:start;white-space:normal;clip-rule:nonzero;display:inline;overflow:visible;visibility:visible;opacity:1;isolation:auto;mix-blend-mode:normal;color-interpolation:sRGB;color-interpolation-filters:linearRGB;solid-color:#000000;solid-opacity:1;fill:#d7e3e7;fill-opacity:1;fill-rule:evenodd;stroke:none;stroke-width:1px;stroke-linecap:butt;stroke-linejoin:miter;stroke-miterlimit:4;stroke-dasharray:none;stroke-dashoffset:0;stroke-opacity:1;color-rendering:auto;image-rendering:auto;shape-rendering:auto;text-rendering:auto;enable-background:accumulate" />
      <path
         style="fill:none;fill-opacity:1;fill-rule:evenodd;stroke:#d7e3e7;stroke-width:1px;stroke-linecap:butt;stroke-linejoin:miter;stroke-opacity:1"
         d="m 253.50258,632.36212 0,320"
         id="path7998"
         inkscape:connector-curvature="0" />
      <path
         inkscape:connector-curvature="0"
         id="path8000"
         d="m 265.50258,632.36212 0,320"
         style="fill:none;fill-opacity:1;fill-rule:evenodd;stroke:#d7e3e7;stroke-width:1px;stroke-linecap:butt;stroke-linejoin:miter;stroke-opacity:1" />
      <path
         style="fill:none;fill-opacity:1;fill-rule:evenodd;stroke:#d7e3e7;stroke-width:1px;stroke-linecap:butt;stroke-linejoin:miter;stroke-opacity:1"
         d="m 277.50258,632.36212 0,320"
         id="path8002"
         inkscape:connector-curvature="0" />
      <path
         inkscape:connector-curvature="0"
         id="path8004"
         d="m 277.50258,632.36212 0,320"
         style="fill:none;fill-opacity:1;fill-rule:evenodd;stroke:#d7e3e7;stroke-width:1px;stroke-linecap:butt;stroke-linejoin:miter;stroke-opacity:1" />
      <path
         inkscape:connector-curvature="0"
         id="path8006"
         d="m 313.50258,632.36212 0,320"
         style="fill:none;fill-opacity:1;fill-rule:evenodd;stroke:#d7e3e7;stroke-width:1px;stroke-linecap:butt;stroke-linejoin:miter;stroke-opacity:1" />
      <path
         style="fill:none;fill-opacity:1;fill-rule:evenodd;stroke:#d7e3e7;stroke-width:1px;stroke-linecap:butt;stroke-linejoin:miter;stroke-opacity:1"
         d="m 325.50258,632.36212 0,320"
         id="path8008"
         inkscape:connector-curvature="0" />
      <path
         inkscape:connector-curvature="0"
         id="path8010"
         d="m 337.50258,632.36212 0,320"
         style="fill:none;fill-opacity:1;fill-rule:evenodd;stroke:#d7e3e7;stroke-width:1px;stroke-linecap:butt;stroke-linejoin:miter;stroke-opacity:1" />
      <path
         style="fill:none;fill-opacity:1;fill-rule:evenodd;stroke:#d7e3e7;stroke-width:1px;stroke-linecap:butt;stroke-linejoin:miter;stroke-opacity:1"
         d="m 373.50258,632.36212 0,320"
         id="path8012"
         inkscape:connector-curvature="0" />
      <path
         inkscape:connector-curvature="0"
         id="path8014"
         d="m 385.50258,632.36212 0,320"
         style="fill:none;fill-opacity:1;fill-rule:evenodd;stroke:#d7e3e7;stroke-width:1px;stroke-linecap:butt;stroke-linejoin:miter;stroke-opacity:1" />
      <path
         style="fill:none;fill-opacity:1;fill-rule:evenodd;stroke:#d7e3e7;stroke-width:1px;stroke-linecap:butt;stroke-linejoin:miter;stroke-opacity:1"
         d="m 397.50258,632.36212 0,320"
         id="path8016"
         inkscape:connector-curvature="0" />
      <path
         inkscape:connector-curvature="0"
         id="path7074"
         d="m 129.50258,696.36212 299.99998,0"
         style="fill:none;fill-opacity:1;fill-rule:evenodd;stroke:#d7e3e7;stroke-width:1px;stroke-linecap:butt;stroke-linejoin:miter;stroke-opacity:1" />
      <path
         style="fill:none;fill-opacity:1;fill-rule:evenodd;stroke:#d7e3e7;stroke-width:1px;stroke-linecap:butt;stroke-linejoin:miter;stroke-opacity:1"
         d="m 129.50258,708.36212 299.99998,0"
         id="path7076"
         inkscape:connector-curvature="0" />
      <path
         inkscape:connector-curvature="0"
         id="path7078"
         d="m 129.50258,720.36212 299.99998,0"
         style="fill:none;fill-opacity:1;fill-rule:evenodd;stroke:#d7e3e7;stroke-width:1px;stroke-linecap:butt;stroke-linejoin:miter;stroke-opacity:1" />
      <path
         style="fill:none;fill-opacity:1;fill-rule:evenodd;stroke:#d7e3e7;stroke-width:1px;stroke-linecap:butt;stroke-linejoin:miter;stroke-opacity:1"
         d="m 129.50258,756.36212 299.99998,0"
         id="path7080"
         inkscape:connector-curvature="0" />
      <path
         inkscape:connector-curvature="0"
         id="path7082"
         d="m 129.50258,768.36212 299.99998,0"
         style="fill:none;fill-opacity:1;fill-rule:evenodd;stroke:#d7e3e7;stroke-width:1px;stroke-linecap:butt;stroke-linejoin:miter;stroke-opacity:1" />
      <path
         style="fill:none;fill-opacity:1;fill-rule:evenodd;stroke:#d7e3e7;stroke-width:1px;stroke-linecap:butt;stroke-linejoin:miter;stroke-opacity:1"
         d="m 129.50258,780.36212 299.99998,0"
         id="path7084"
         inkscape:connector-curvature="0" />
      <path
         inkscape:connector-curvature="0"
         id="path7086"
         d="m 129.50258,816.36212 299.99998,0"
         style="fill:none;fill-opacity:1;fill-rule:evenodd;stroke:#d7e3e7;stroke-width:1px;stroke-linecap:butt;stroke-linejoin:miter;stroke-opacity:1" />
      <path
         style="fill:none;fill-opacity:1;fill-rule:evenodd;stroke:#d7e3e7;stroke-width:1px;stroke-linecap:butt;stroke-linejoin:miter;stroke-opacity:1"
         d="m 129.50258,828.36212 299.99998,0"
         id="path7088"
         inkscape:connector-curvature="0" />
      <path
         inkscape:connector-curvature="0"
         id="path7090"
         d="m 129.50258,840.36212 299.99998,0"
         style="fill:none;fill-opacity:1;fill-rule:evenodd;stroke:#d7e3e7;stroke-width:1px;stroke-linecap:butt;stroke-linejoin:miter;stroke-opacity:1" />
      <path
         style="fill:none;fill-opacity:1;fill-rule:evenodd;stroke:#d7e3e7;stroke-width:1px;stroke-linecap:butt;stroke-linejoin:miter;stroke-opacity:1"
         d="m 129.50258,864.36212 299.99998,0"
         id="path7092"
         inkscape:connector-curvature="0" />
      <path
         inkscape:connector-curvature="0"
         id="path7094"
         d="m 129.50258,876.36212 299.99998,0"
         style="fill:none;fill-opacity:1;fill-rule:evenodd;stroke:#d7e3e7;stroke-width:1px;stroke-linecap:butt;stroke-linejoin:miter;stroke-opacity:1" />
      <path
         style="fill:none;fill-opacity:1;fill-rule:evenodd;stroke:#d7e3e7;stroke-width:1px;stroke-linecap:butt;stroke-linejoin:miter;stroke-opacity:1"
         d="m 129.50258,888.36212 299.99998,0"
         id="path7096"
         inkscape:connector-curvature="0" />
      <path
         inkscape:connector-curvature="0"
         id="path7098"
         d="m 129.50258,900.36212 299.99998,0"
         style="fill:none;fill-opacity:1;fill-rule:evenodd;stroke:#d7e3e7;stroke-width:1px;stroke-linecap:butt;stroke-linejoin:miter;stroke-opacity:1" />
      <path
         style="fill:none;fill-opacity:1;fill-rule:evenodd;stroke:#d7e3e7;stroke-width:1px;stroke-linecap:butt;stroke-linejoin:miter;stroke-opacity:1"
         d="m 129.50258,924.36212 299.99998,0"
         id="path7100"
         inkscape:connector-curvature="0" />
      <path
         inkscape:connector-curvature="0"
         id="path7102"
         d="m 129.50258,936.36212 299.99998,0"
         style="fill:none;fill-opacity:1;fill-rule:evenodd;stroke:#d7e3e7;stroke-width:1px;stroke-linecap:butt;stroke-linejoin:miter;stroke-opacity:1" />
      <path
         sodipodi:nodetypes="ccccc"
         inkscape:connector-curvature="0"
         id="path7104"
         d="m 130.52252,947.86133 0.63116,1 296.6978,0 0.63116,-1 z"
         style="color:#000000;font-style:normal;font-variant:normal;font-weight:normal;font-stretch:normal;font-size:medium;line-height:normal;font-family:sans-serif;text-indent:0;text-align:start;text-decoration:none;text-decoration-line:none;text-decoration-style:solid;text-decoration-color:#000000;letter-spacing:normal;word-spacing:normal;text-transform:none;direction:ltr;block-progression:tb;writing-mode:lr-tb;baseline-shift:baseline;text-anchor:start;white-space:normal;clip-rule:nonzero;display:inline;overflow:visible;visibility:visible;opacity:1;isolation:auto;mix-blend-mode:normal;color-interpolation:sRGB;color-interpolation-filters:linearRGB;solid-color:#000000;solid-opacity:1;fill:#d7e3e7;fill-opacity:1;fill-rule:evenodd;stroke:none;stroke-width:1px;stroke-linecap:butt;stroke-linejoin:miter;stroke-miterlimit:4;stroke-dasharray:none;stroke-dashoffset:0;stroke-opacity:1;color-rendering:auto;image-rendering:auto;shape-rendering:auto;text-rendering:auto;enable-background:accumulate" />
      <path
         inkscape:connector-curvature="0"
         id="path7106"
         d="m 421.50258,632.36212 0,320"
         style="fill:none;fill-opacity:1;fill-rule:evenodd;stroke:#d7e3e7;stroke-width:1px;stroke-linecap:butt;stroke-linejoin:miter;stroke-opacity:1" />
      <path
         inkscape:connector-curvature="0"
         id="path7108"
         d="m 145.50258,632.36212 0,320"
         style="fill:none;fill-opacity:1;fill-rule:evenodd;stroke:#d7e3e7;stroke-width:1px;stroke-linecap:butt;stroke-linejoin:miter;stroke-opacity:1" />
      <path
         sodipodi:nodetypes="ccccc"
         inkscape:connector-curvature="0"
         id="path7110"
         d="m 133.00195,634.01426 0,316.69572 1,0.63144 0,-317.9586 z"
         style="color:#000000;font-style:normal;font-variant:normal;font-weight:normal;font-stretch:normal;font-size:medium;line-height:normal;font-family:sans-serif;text-indent:0;text-align:start;text-decoration:none;text-decoration-line:none;text-decoration-style:solid;text-decoration-color:#000000;letter-spacing:normal;word-spacing:normal;text-transform:none;direction:ltr;block-progression:tb;writing-mode:lr-tb;baseline-shift:baseline;text-anchor:start;white-space:normal;clip-rule:nonzero;display:inline;overflow:visible;visibility:visible;opacity:1;isolation:auto;mix-blend-mode:normal;color-interpolation:sRGB;color-interpolation-filters:linearRGB;solid-color:#000000;solid-opacity:1;fill:#d7e3e7;fill-opacity:1;fill-rule:evenodd;stroke:none;stroke-width:1px;stroke-linecap:butt;stroke-linejoin:miter;stroke-miterlimit:4;stroke-dasharray:none;stroke-dashoffset:0;stroke-opacity:1;color-rendering:auto;image-rendering:auto;shape-rendering:auto;text-rendering:auto;enable-background:accumulate" />
      <path
         inkscape:connector-curvature="0"
         id="path7882"
         d="m 169.50258,632.36212 0,320"
         style="fill:none;fill-rule:evenodd;stroke:#c1d3d9;stroke-width:1px;stroke-linecap:butt;stroke-linejoin:miter;stroke-opacity:1;fill-opacity:1" />
      <path
         style="fill:none;fill-rule:evenodd;stroke:#c1d3d9;stroke-width:1px;stroke-linecap:butt;stroke-linejoin:miter;stroke-opacity:1;fill-opacity:1"
         d="m 229.50258,632.36212 0,320"
         id="path7888"
         inkscape:connector-curvature="0" />
      <path
         inkscape:connector-curvature="0"
         id="path7894"
         d="m 289.50258,632.36212 0,320"
         style="fill:none;fill-rule:evenodd;stroke:#c1d3d9;stroke-width:1px;stroke-linecap:butt;stroke-linejoin:miter;stroke-opacity:1;fill-opacity:1" />
      <path
         style="fill:none;fill-rule:evenodd;stroke:#c1d3d9;stroke-width:1px;stroke-linecap:butt;stroke-linejoin:miter;stroke-opacity:1;fill-opacity:1"
         d="m 349.50258,632.36212 0,320"
         id="path7900"
         inkscape:connector-curvature="0" />
      <path
         inkscape:connector-curvature="0"
         id="path7906"
         d="m 409.50258,632.36212 0,320"
         style="fill:none;fill-rule:evenodd;stroke:#c1d3d9;stroke-width:1px;stroke-linecap:butt;stroke-linejoin:miter;stroke-opacity:1;fill-opacity:1" />
      <path
         inkscape:connector-curvature="0"
         id="path7946"
         d="m 129.50258,672.36212 299.99998,0"
         style="fill:none;fill-rule:evenodd;stroke:#c1d3d9;stroke-width:1px;stroke-linecap:butt;stroke-linejoin:miter;stroke-opacity:1;fill-opacity:1" />
      <path
         style="fill:none;fill-rule:evenodd;stroke:#c1d3d9;stroke-width:1px;stroke-linecap:butt;stroke-linejoin:miter;stroke-opacity:1;fill-opacity:1"
         d="m 129.50258,732.36212 299.99998,0"
         id="path7952"
         inkscape:connector-curvature="0" />
      <path
         inkscape:connector-curvature="0"
         id="path7958"
         d="m 129.50258,792.36212 299.99998,0"
         style="fill:none;fill-rule:evenodd;stroke:#c1d3d9;stroke-width:1px;stroke-linecap:butt;stroke-linejoin:miter;stroke-opacity:1;fill-opacity:1" />
      <path
         inkscape:connector-curvature="0"
         id="path7970"
         d="m 129.50258,912.36212 299.99998,0"
         style="fill:none;fill-rule:evenodd;stroke:#c1d3d9;stroke-width:1px;stroke-linecap:butt;stroke-linejoin:miter;stroke-opacity:1;fill-opacity:1" />
      <path
         style="fill:none;fill-opacity:1;fill-rule:evenodd;stroke:#c1d3d9;stroke-width:1px;stroke-linecap:butt;stroke-linejoin:miter;stroke-opacity:1"
         d="m 129.50258,852.36212 299.99998,0"
         id="path7120"
         inkscape:connector-curvature="0" />
    </g>
    <g
       transform="matrix(-0.90713735,-0.42083471,0.42083471,-0.90713735,231.46828,1674.5337)"
       id="g7306">
      <path
         sodipodi:nodetypes="cc"
         inkscape:connector-curvature="0"
         id="path7308"
         d="M 361.93104,714.15646 331.03078,699.88641"
         style="fill:none;fill-rule:evenodd;stroke:#000000;stroke-width:1px;stroke-linecap:butt;stroke-linejoin:miter;stroke-opacity:1" />
      <circle
         r="2.5191479"
         cy="698.51733"
         cx="329.02737"
         id="circle7310"
         style="fill:none;fill-opacity:1;stroke:#000000;stroke-width:1.26214063;stroke-linecap:round;stroke-linejoin:round;stroke-miterlimit:4;stroke-dasharray:none;stroke-opacity:1" />
    </g>
    <g
       transform="matrix(2.0288507,0,0,2.0288507,66.907464,-417.85692)"
       id="layer1-3"
       inkscape:label="Layer 1">
      <g
         transform="translate(0.15075129,1.0097112)"
         id="g7077">
        <path
           style="fill:#d18a5c;fill-opacity:1;stroke:none;stroke-width:9.10000038;stroke-linecap:round;stroke-miterlimit:4;stroke-dasharray:none"
           d="m 165.37021,526.03043 a 11.587913,11.587913 0 0 0 -8.64598,-1.0742 11.587913,11.587913 0 0 0 -0.25834,0.0791 c -0.18448,0.0778 -0.33142,0.21258 -0.42645,0.37718 l -5.3e-4,-2.6e-4 -6.61265,11.45345 14.8212,8.55702 6.56824,-11.37652 c 0.12134,-0.16869 0.18333,-0.37812 0.16557,-0.59441 a 11.587913,11.587913 0 0 0 -0.0648,-0.30158 11.587913,11.587913 0 0 0 -5.54633,-7.11973 z"
           id="rect7072"
           inkscape:connector-curvature="0" />
        <path
           style="fill:#925932;stroke:none;stroke-width:9.10000038;stroke-linecap:round;stroke-miterlimit:4;stroke-dasharray:none;fill-opacity:1"
           d="m 163.75107,545.7577 c 0.42531,-0.11396 0.69468,-0.51242 0.65995,-0.9356 a 11.587913,11.587913 0 0 0 -0.0649,-0.30149 11.587913,11.587913 0 0 0 -14.19232,-8.19394 11.587913,11.587913 0 0 0 -0.25825,0.0792 c -0.40604,0.17112 -0.63295,0.61664 -0.51556,1.05475 l 2.80532,10.4696 c 0.12832,0.4789 0.61723,0.76117 1.09614,0.63285 l 10.46959,-2.80532 z"
           id="rect7040"
           inkscape:connector-curvature="0" />
        <path
           style="fill:#d49061;fill-opacity:1;stroke:none;stroke-width:9.10000038;stroke-linecap:round;stroke-miterlimit:4;stroke-dasharray:none"
           d="m 160.0771,546.74214 a 7.9302512,7.9302512 0 0 0 -9.71264,-5.6076 l 1.82088,6.79563 c 0.12832,0.4789 0.61723,0.76117 1.09614,0.63285 l 6.79562,-1.82088 z"
           id="path7056"
           inkscape:connector-curvature="0" />
      </g>
    </g>
    <g
       id="g7180"
       transform="matrix(1.9757373,0,0,1.9668796,-632.10938,-3.5352128)">
      <rect
         ry="3.0824702"
         y="324.96292"
         x="565.42902"
         height="159.26094"
         width="203.44299"
         id="rect7277"
         style="fill:#b3b3b3;fill-opacity:1;stroke:#e2e2e2;stroke-width:3.59621453;stroke-miterlimit:4;stroke-dasharray:none;stroke-opacity:1" />
      <rect
         rx="0"
         ry="0"
         y="324.93115"
         x="565.44489"
         height="11.533902"
         width="201.94681"
         id="rect7279"
         style="fill:#e2e2e2;fill-opacity:1;stroke:none;stroke-width:10;stroke-miterlimit:4;stroke-dasharray:none;stroke-opacity:1" />
      <circle
         r="1.7086258"
         cy="329.69595"
         cx="572.05823"
         id="path7281"
         style="fill:#de8787;fill-opacity:1;stroke:none;stroke-width:10;stroke-miterlimit:4;stroke-dasharray:none;stroke-opacity:1" />
      <circle
         r="1.7086258"
         style="fill:#87deaa;fill-opacity:1;stroke:none;stroke-width:10;stroke-miterlimit:4;stroke-dasharray:none;stroke-opacity:1"
         id="circle7283"
         cx="577.81219"
         cy="329.69595" />
      <circle
         r="1.7086258"
         cy="329.69595"
         cx="583.5661"
         id="circle7289"
         style="fill:#ffe680;fill-opacity:1;stroke:none;stroke-width:10;stroke-miterlimit:4;stroke-dasharray:none;stroke-opacity:1" />
    </g>
    <path
       style="fill:none;fill-rule:evenodd;stroke:#000000;stroke-width:1px;stroke-linecap:butt;stroke-linejoin:miter;stroke-opacity:1"
       d="M 348.01301,726.95833 280.53078,690.88641"
       id="path7294"
       inkscape:connector-curvature="0"
       sodipodi:nodetypes="cc" />
    <g
       id="g7302"
       transform="matrix(-0.82007646,-0.57225398,0.57225398,-0.82007646,242.04406,1524.7589)">
      <path
         style="fill:none;fill-rule:evenodd;stroke:#000000;stroke-width:1px;stroke-linecap:butt;stroke-linejoin:miter;stroke-opacity:1"
         d="M 361.93104,714.15646 331.03078,699.88641"
         id="path7298"
         inkscape:connector-curvature="0"
         sodipodi:nodetypes="cc" />
      <circle
         style="fill:none;fill-opacity:1;stroke:#000000;stroke-width:1.26214063;stroke-linecap:round;stroke-linejoin:round;stroke-miterlimit:4;stroke-dasharray:none;stroke-opacity:1"
         id="circle7300"
         cx="329.02737"
         cy="698.51733"
         r="2.5191479" />
    </g>
    <g
       id="g7312"
       transform="matrix(0.84360294,0.5369675,-0.5369675,0.84360294,286.12425,84.278882)">
      <path
         style="fill:none;fill-rule:evenodd;stroke:#000000;stroke-width:1px;stroke-linecap:butt;stroke-linejoin:miter;stroke-opacity:1"
         d="M 355.74594,711.21218 331.014,699.86005"
         id="path7314"
         inkscape:connector-curvature="0"
         sodipodi:nodetypes="cc" />
      <circle
         style="fill:none;fill-opacity:1;stroke:#000000;stroke-width:1.26214063;stroke-linecap:round;stroke-linejoin:round;stroke-miterlimit:4;stroke-dasharray:none;stroke-opacity:1"
         id="circle7316"
         cx="329.02737"
         cy="698.51733"
         r="2.5191479" />
    </g>
    <g
       id="layer1-2"
       transform="matrix(0.40261967,0,0,0.40261967,117.92023,640.52251)">
      <g
         id="g7066"
         transform="translate(-0.71428598,-160.71428)">
        <path
           style="fill:#181818"
           d="m 232.23451,761.88338 c -10.24192,-7.1767 -18.84313,-16.77954 -23.48151,-26.21598 -2.31987,-4.7196 -5.82757,-15.00314 -9.02831,-26.46835 -10.92664,-39.13972 -13.79415,-45.73 -21.96999,-50.49288 l -5.23323,-3.04865 -1.5429,-10.26048 c -0.84859,-5.64327 -1.58687,-12.04167 -1.64062,-14.21868 l -0.0977,-3.95818 4.92187,-1.39601 c 16.51814,-4.68509 42.61775,-7.25198 78.98438,-7.76808 37.94829,-0.53855 51.68137,0.50939 89.97184,6.86554 24.52536,4.07117 44.63766,6.35094 56.27816,6.37924 10.16542,0.0247 29.17835,-2.17564 52.27211,-6.04943 25.48496,-4.2749 44.82351,-6.54536 54.60289,-6.4107 11.05207,-0.45645 20.94751,-0.45746 31.40625,-1.02952 21.55928,-1.1792 68.13568,3.20755 85.07812,8.01299 l 4.92188,1.39601 -0.0977,3.95818 c -0.0537,2.17701 -0.79203,8.57541 -1.64062,14.21868 l -1.5429,10.26048 -5.23323,3.04865 c -4.22514,2.46138 -5.78638,4.09673 -8.10481,8.48951 -3.36159,6.36932 -7.62184,19.31982 -14.28017,43.40962 -2.92827,10.59446 -6.28264,20.36251 -8.61978,25.10108 -4.86427,9.86237 -14.13826,19.94824 -24.79647,26.96721 -44.71969,22.83172 -73.95823,13.53958 -104.38087,0.0431 -24.34651,-15.7992 -37.21996,-37.88418 -48.79462,-83.70939 -1.27452,-5.04594 -4.81178,-9.2353 -8.95131,-10.60147 -2.73255,-0.90182 -3.81084,-0.79882 -6.7057,0.64055 -5.11715,2.54434 -6.54128,5.1727 -10.08669,18.61609 -5.56958,21.11851 -11.82972,36.2202 -20.57776,49.64088 -7.05352,10.82105 -15.11662,18.6024 -26.82822,25.89075 -30.40087,19.76053 -74.15583,17.08051 -104.80239,-1.31076 z m 74.37461,2.69851 c 13.08124,-3.1782 19.56935,-5.73261 27.01381,-10.6355 14.03643,-9.24434 24.9275,-27.84541 30.63453,-52.3213 2.41451,-10.35515 4.64839,-27.84243 4.90069,-38.36354 0.17085,-7.1247 -0.11696,-9.03964 -1.84976,-12.3075 -3.81809,-7.20049 -14.30421,-12.10265 -34.68682,-16.21575 -18.52476,-3.7382 -25.43084,-4.29079 -52.75635,-4.22132 -31.30031,0.0796 -53.06975,1.96036 -59.66933,5.15516 -5.87787,2.84543 -10.34657,8.54889 -12.78505,16.31774 -6.46665,20.60233 3.41302,73.05127 16.91283,89.78641 7.22305,8.9541 19.75919,16.34204 35.3853,20.85367 19.72539,5.69519 29.77213,6.11331 46.90015,1.95193 z m 214.31778,1.83853 c 29.73132,-5.1847 48.54752,-16.27663 57.0563,-33.634 7.42304,-15.14254 13.36596,-42.42958 13.50856,-62.02487 0.10668,-14.66003 -1.98046,-22.93654 -7.37267,-29.23613 -5.19691,-6.07142 -9.42944,-7.60512 -25.91016,-9.38884 -20.84547,-2.25612 -64.83915,-2.2497 -79.89114,0.0117 -25.02847,3.76019 -42.87452,9.98827 -47.2487,16.48928 -3.60655,5.36013 -4.15338,9.18391 -3.05427,21.35757 2.29182,25.38416 6.03037,41.39817 13.18054,56.45878 9.90077,20.85426 22.85097,31.63651 44.60468,37.13759 17.0181,4.30353 23.62143,4.83534 35.12686,2.82895 z"
           id="path7068"
           inkscape:connector-curvature="0" />
        <path
           style="fill:#333333;fill-opacity:1;stroke:none;stroke-opacity:1"
           d="m 591.80151,458.8535 c -9.15986,22.90729 1.95707,49.2272 6.55699,70.11586 4.59992,20.88866 -29.10322,-0.043 -35.20407,-1.40137 -139.79109,-31.12425 -282.7222,-30.12619 -326.58221,-26.53735 -23.10576,1.89062 -44.96797,12.13863 -49.4949,-1.83307 -4.52692,-13.9717 -5.73384,-28.94389 -5.73384,-41.14722 0,-48.81333 94.34729,-94.43613 204.87652,-88.0941 176.8848,10.14943 223.82532,43.27253 205.58151,88.89725 z"
           id="path7105"
           transform="matrix(0.99835248,-0.0573787,0.00145494,0.99999894,0,0)"
           inkscape:connector-curvature="0" />
        <path
           style="fill:#181818;fill-opacity:1;stroke:none;stroke-opacity:1"
           d="m 232.68555,143.81055 c -71.98129,0.36826 -201.788789,18.98549 -203.042972,20.02343 -15.46887,17.77983 -2.92243,93.968 0,96.42774 18.21429,-0.89286 139.565372,-19.71101 209.822262,-20 76.89602,-0.3163 222.74925,22.02031 229.82032,20 3.53553,-4.79822 -1.5846,-83.95197 -6.38282,-89.50781 -8.33376,-4.04061 -148.42554,-25.98712 -223.4375,-26.91993 -2.19537,-0.0273 -4.45732,-0.0353 -6.77929,-0.0234 z m -2.32813,13.33203 0.0176,67.91601 -16.44727,0.29883 -0.0176,-67.91601 16.44726,-0.29883 z m 21.72461,0.15039 16.37695,0.83398 0.0508,68.21289 -16.37696,-0.83593 -0.0508,-68.21094 z m -59.93945,0.875 1.48633,67.63086 -16.48633,1.39062 -1.48633,-67.63086 16.48633,-1.39062 z m 97.14258,0.91015 16.34961,1.31446 1.50781,68.44726 -16.34766,-1.31445 -1.50976,-68.44727 z m -137.5,3.08985 2.17968,67.68164 -16.46484,1.19727 -2.17969,-67.6836 16.46485,-1.19531 z m 173.95312,0.0879 16.42774,1.96875 4.2871,68.50781 -16.42968,-1.96875 -4.28516,-68.50781 z m 34.84961,2.16992 16.42969,2.5332 4.28515,68.65625 -16.42968,-2.53515 -4.28516,-68.6543 z m -246.21484,2.15039 1.34179,67.47266 -16.515621,1.99805 -1.341797,-67.47266 16.515628,-1.99805 z m 278.60156,3.76172 16.36914,1.96875 2.20117,68.50781 -16.36719,-1.96875 -2.20312,-68.50781 z m -309.046876,0.46289 0.81836,67.47266 -16.53125,1.99804 -0.81836,-67.4746 16.53125,-1.9961 z m -29.285156,2.5 0.816406,67.47266 -16.53125,1.99804 -0.816406,-67.4746 16.53125,-1.9961 z m 370.595702,2.59375 16.42774,1.9668 4.2871,68.50781 -16.42968,-1.9668 -4.28516,-68.50781 z"
           transform="translate(146.33931,326.60329)"
           id="path7112"
           inkscape:connector-curvature="0" />
        <path
           style="color:#000000;font-style:normal;font-variant:normal;font-weight:normal;font-stretch:normal;font-size:medium;line-height:normal;font-family:sans-serif;text-indent:0;text-align:start;text-decoration:none;text-decoration-line:none;text-decoration-style:solid;text-decoration-color:#000000;letter-spacing:normal;word-spacing:normal;text-transform:none;direction:ltr;block-progression:tb;writing-mode:lr-tb;baseline-shift:baseline;text-anchor:start;white-space:normal;clip-rule:nonzero;display:inline;overflow:visible;visibility:visible;opacity:1;isolation:auto;mix-blend-mode:normal;color-interpolation:sRGB;color-interpolation-filters:linearRGB;solid-color:#000000;solid-opacity:1;fill:#181918;fill-opacity:1;fill-rule:evenodd;stroke:none;stroke-width:1.07133579px;stroke-linecap:butt;stroke-linejoin:miter;stroke-miterlimit:4;stroke-dasharray:none;stroke-dashoffset:0;stroke-opacity:1;color-rendering:auto;image-rendering:auto;shape-rendering:auto;text-rendering:auto;enable-background:accumulate"
           d="m 481.41992,422.14648 -0.18554,1.05469 53.04391,7.80017 52.53883,15.88139 -0.0229,-6.42171 -52.43461,-13.19788 z"
           id="path7148"
           inkscape:connector-curvature="0" />
      </g>
    </g>
    <g
       transform="matrix(0.40261967,0,0,0.40261967,117.79523,640.33501)"
       id="g7233"
       style="filter:url(#filter7245)">
      <g
         transform="translate(-0.71428598,-160.71428)"
         id="g7235">
        <path
           inkscape:connector-curvature="0"
           id="path7237"
           d="m 232.23451,761.88338 c -10.24192,-7.1767 -18.84313,-16.77954 -23.48151,-26.21598 -2.31987,-4.7196 -5.82757,-15.00314 -9.02831,-26.46835 -10.92664,-39.13972 -13.79415,-45.73 -21.96999,-50.49288 l -5.23323,-3.04865 -1.5429,-10.26048 c -0.84859,-5.64327 -1.58687,-12.04167 -1.64062,-14.21868 l -0.0977,-3.95818 4.92187,-1.39601 c 16.51814,-4.68509 42.61775,-7.25198 78.98438,-7.76808 37.94829,-0.53855 51.68137,0.50939 89.97184,6.86554 24.52536,4.07117 44.63766,6.35094 56.27816,6.37924 10.16542,0.0247 29.17835,-2.17564 52.27211,-6.04943 25.48496,-4.2749 44.82351,-6.54536 54.60289,-6.4107 11.05207,-0.45645 20.94751,-0.45746 31.40625,-1.02952 21.55928,-1.1792 68.13568,3.20755 85.07812,8.01299 l 4.92188,1.39601 -0.0977,3.95818 c -0.0537,2.17701 -0.79203,8.57541 -1.64062,14.21868 l -1.5429,10.26048 -5.23323,3.04865 c -4.22514,2.46138 -5.78638,4.09673 -8.10481,8.48951 -3.36159,6.36932 -7.62184,19.31982 -14.28017,43.40962 -2.92827,10.59446 -6.28264,20.36251 -8.61978,25.10108 -4.86427,9.86237 -14.13826,19.94824 -24.79647,26.96721 -44.71969,22.83172 -73.95823,13.53958 -104.38087,0.0431 -24.34651,-15.7992 -37.21996,-37.88418 -48.79462,-83.70939 -1.27452,-5.04594 -4.81178,-9.2353 -8.95131,-10.60147 -2.73255,-0.90182 -3.81084,-0.79882 -6.7057,0.64055 -5.11715,2.54434 -6.54128,5.1727 -10.08669,18.61609 -5.56958,21.11851 -11.82972,36.2202 -20.57776,49.64088 -7.05352,10.82105 -15.11662,18.6024 -26.82822,25.89075 -30.40087,19.76053 -74.15583,17.08051 -104.80239,-1.31076 z m 74.37461,2.69851 c 13.08124,-3.1782 19.56935,-5.73261 27.01381,-10.6355 14.03643,-9.24434 24.9275,-27.84541 30.63453,-52.3213 2.41451,-10.35515 4.64839,-27.84243 4.90069,-38.36354 0.17085,-7.1247 -0.11696,-9.03964 -1.84976,-12.3075 -3.81809,-7.20049 -14.30421,-12.10265 -34.68682,-16.21575 -18.52476,-3.7382 -25.43084,-4.29079 -52.75635,-4.22132 -31.30031,0.0796 -53.06975,1.96036 -59.66933,5.15516 -5.87787,2.84543 -10.34657,8.54889 -12.78505,16.31774 -6.46665,20.60233 3.41302,73.05127 16.91283,89.78641 7.22305,8.9541 19.75919,16.34204 35.3853,20.85367 19.72539,5.69519 29.77213,6.11331 46.90015,1.95193 z m 214.31778,1.83853 c 29.73132,-5.1847 48.54752,-16.27663 57.0563,-33.634 7.42304,-15.14254 13.36596,-42.42958 13.50856,-62.02487 0.10668,-14.66003 -1.98046,-22.93654 -7.37267,-29.23613 -5.19691,-6.07142 -9.42944,-7.60512 -25.91016,-9.38884 -20.84547,-2.25612 -64.83915,-2.2497 -79.89114,0.0117 -25.02847,3.76019 -42.87452,9.98827 -47.2487,16.48928 -3.60655,5.36013 -4.15338,9.18391 -3.05427,21.35757 2.29182,25.38416 6.03037,41.39817 13.18054,56.45878 9.90077,20.85426 22.85097,31.63651 44.60468,37.13759 17.0181,4.30353 23.62143,4.83534 35.12686,2.82895 z"
           style="fill:#181818" />
        <path
           inkscape:connector-curvature="0"
           transform="matrix(0.99835248,-0.0573787,0.00145494,0.99999894,0,0)"
           id="path7239"
           d="m 591.80151,458.8535 c -9.15986,22.90729 1.95707,49.2272 6.55699,70.11586 4.59992,20.88866 -29.10322,-0.043 -35.20407,-1.40137 -139.79109,-31.12425 -282.7222,-30.12619 -326.58221,-26.53735 -23.10576,1.89062 -44.96797,12.13863 -49.4949,-1.83307 -4.52692,-13.9717 -5.73384,-28.94389 -5.73384,-41.14722 0,-48.81333 94.34729,-94.43613 204.87652,-88.0941 176.8848,10.14943 223.82532,43.27253 205.58151,88.89725 z"
           style="fill:#333333;fill-opacity:1;stroke:none;stroke-opacity:1" />
        <path
           inkscape:connector-curvature="0"
           id="path7241"
           transform="translate(146.33931,326.60329)"
           d="m 232.68555,143.81055 c -71.98129,0.36826 -201.788789,18.98549 -203.042972,20.02343 -15.46887,17.77983 -2.92243,93.968 0,96.42774 18.21429,-0.89286 139.565372,-19.71101 209.822262,-20 76.89602,-0.3163 222.74925,22.02031 229.82032,20 3.53553,-4.79822 -1.5846,-83.95197 -6.38282,-89.50781 -8.33376,-4.04061 -148.42554,-25.98712 -223.4375,-26.91993 -2.19537,-0.0273 -4.45732,-0.0353 -6.77929,-0.0234 z m -2.32813,13.33203 0.0176,67.91601 -16.44727,0.29883 -0.0176,-67.91601 16.44726,-0.29883 z m 21.72461,0.15039 16.37695,0.83398 0.0508,68.21289 -16.37696,-0.83593 -0.0508,-68.21094 z m -59.93945,0.875 1.48633,67.63086 -16.48633,1.39062 -1.48633,-67.63086 16.48633,-1.39062 z m 97.14258,0.91015 16.34961,1.31446 1.50781,68.44726 -16.34766,-1.31445 -1.50976,-68.44727 z m -137.5,3.08985 2.17968,67.68164 -16.46484,1.19727 -2.17969,-67.6836 16.46485,-1.19531 z m 173.95312,0.0879 16.42774,1.96875 4.2871,68.50781 -16.42968,-1.96875 -4.28516,-68.50781 z m 34.84961,2.16992 16.42969,2.5332 4.28515,68.65625 -16.42968,-2.53515 -4.28516,-68.6543 z m -246.21484,2.15039 1.34179,67.47266 -16.515621,1.99805 -1.341797,-67.47266 16.515628,-1.99805 z m 278.60156,3.76172 16.36914,1.96875 2.20117,68.50781 -16.36719,-1.96875 -2.20312,-68.50781 z m -309.046876,0.46289 0.81836,67.47266 -16.53125,1.99804 -0.81836,-67.4746 16.53125,-1.9961 z m -29.285156,2.5 0.816406,67.47266 -16.53125,1.99804 -0.816406,-67.4746 16.53125,-1.9961 z m 370.595702,2.59375 16.42774,1.9668 4.2871,68.50781 -16.42968,-1.9668 -4.28516,-68.50781 z"
           style="fill:#181818;fill-opacity:1;stroke:none;stroke-opacity:1" />
        <path
           inkscape:connector-curvature="0"
           id="path7243"
           d="m 481.41992,422.14648 -0.18554,1.05469 53.04391,7.80017 52.53883,15.88139 -0.0229,-6.42171 -52.43461,-13.19788 z"
           style="color:#000000;font-style:normal;font-variant:normal;font-weight:normal;font-stretch:normal;font-size:medium;line-height:normal;font-family:sans-serif;text-indent:0;text-align:start;text-decoration:none;text-decoration-line:none;text-decoration-style:solid;text-decoration-color:#000000;letter-spacing:normal;word-spacing:normal;text-transform:none;direction:ltr;block-progression:tb;writing-mode:lr-tb;baseline-shift:baseline;text-anchor:start;white-space:normal;clip-rule:nonzero;display:inline;overflow:visible;visibility:visible;opacity:1;isolation:auto;mix-blend-mode:normal;color-interpolation:sRGB;color-interpolation-filters:linearRGB;solid-color:#000000;solid-opacity:1;fill:#181918;fill-opacity:1;fill-rule:evenodd;stroke:none;stroke-width:1.07133579px;stroke-linecap:butt;stroke-linejoin:miter;stroke-miterlimit:4;stroke-dasharray:none;stroke-dashoffset:0;stroke-opacity:1;color-rendering:auto;image-rendering:auto;shape-rendering:auto;text-rendering:auto;enable-background:accumulate" />
      </g>
    </g>
    <text
       xml:space="preserve"
       style="font-style:normal;font-weight:normal;font-size:40px;line-height:125%;font-family:sans-serif;letter-spacing:0px;word-spacing:0px;fill:#e2e2e2;fill-opacity:1;stroke:none;stroke-width:1px;stroke-linecap:butt;stroke-linejoin:miter;stroke-opacity:1"
       x="510.82166"
       y="727.09302"
       id="text7269"
       sodipodi:linespacing="125%"><tspan
         sodipodi:role="line"
         id="tspan7271"
         x="510.82166"
         y="727.09302"
         style="font-style:normal;font-variant:normal;font-weight:bold;font-stretch:normal;font-family:'Museo Sans Cyrl';-inkscape-font-specification:'Museo Sans Cyrl Bold';fill:#e2e2e2;fill-opacity:1">&lt;!DOCTYPE html&gt;</tspan><tspan
         sodipodi:role="line"
         x="510.82166"
         y="777.09302"
         id="tspan7273" /></text>
    <text
       xml:space="preserve"
       style="font-style:normal;font-weight:normal;font-size:40px;line-height:125%;font-family:sans-serif;letter-spacing:0px;word-spacing:0px;fill:#e2e2e2;fill-opacity:1;stroke:none;stroke-width:1px;stroke-linecap:butt;stroke-linejoin:miter;stroke-opacity:1"
       x="607.65759"
       y="884.77783"
       id="text7275"
       sodipodi:linespacing="125%"><tspan
         sodipodi:role="line"
         id="tspan7277"
         x="607.65759"
         y="884.77783"
         style="font-style:normal;font-variant:normal;font-weight:bold;font-stretch:normal;font-family:'Museo Sans Cyrl';-inkscape-font-specification:'Museo Sans Cyrl Bold';fill:#e2e2e2;fill-opacity:1">&lt;/html&gt;</tspan></text>
    <text
       xml:space="preserve"
       style="font-style:normal;font-weight:normal;font-size:40px;line-height:125%;font-family:sans-serif;letter-spacing:0px;word-spacing:0px;fill:#000000;fill-opacity:1;stroke:none;stroke-width:1px;stroke-linecap:butt;stroke-linejoin:miter;stroke-opacity:1"
       x="569.92804"
       y="778.0047"
       id="text7279"
       sodipodi:linespacing="125%"><tspan
         sodipodi:role="line"
         id="tspan7281"
         x="569.92804"
         y="778.0047" /></text>
    <circle
       style="fill:#e2e2e2;fill-opacity:1;stroke:none;stroke-width:20;stroke-linecap:round;stroke-linejoin:round;stroke-miterlimit:4;stroke-dasharray:none;stroke-opacity:1"
       id="path7287"
       cx="686.00476"
       cy="792.25128"
       r="10.25" />
    <circle
       r="10.25"
       cy="792.25128"
       cx="646.00476"
       id="circle7290"
       style="fill:#e2e2e2;fill-opacity:1;stroke:none;stroke-width:20;stroke-linecap:round;stroke-linejoin:round;stroke-miterlimit:4;stroke-dasharray:none;stroke-opacity:1" />
    <circle
       r="10.25"
       cy="792.25128"
       cx="726.00476"
       id="circle7292"
       style="fill:#e2e2e2;fill-opacity:1;stroke:none;stroke-width:20;stroke-linecap:round;stroke-linejoin:round;stroke-miterlimit:4;stroke-dasharray:none;stroke-opacity:1" />
    <circle
       style="fill:none;fill-opacity:1;stroke:#000000;stroke-width:1.26214063;stroke-linecap:round;stroke-linejoin:round;stroke-miterlimit:4;stroke-dasharray:none;stroke-opacity:1"
       id="path7296"
       cx="278.52737"
       cy="689.51733"
       r="2.5191479" />
  </g>
</svg>
