<?xml version="1.0" encoding="UTF-8" standalone="no"?>
<!-- Created with Inkscape (http://www.inkscape.org/) -->

<svg
   xmlns:dc="http://purl.org/dc/elements/1.1/"
   xmlns:cc="http://creativecommons.org/ns#"
   xmlns:rdf="http://www.w3.org/1999/02/22-rdf-syntax-ns#"
   xmlns:svg="http://www.w3.org/2000/svg"
   xmlns="http://www.w3.org/2000/svg"
   xmlns:sodipodi="http://sodipodi.sourceforge.net/DTD/sodipodi-0.dtd"
   xmlns:inkscape="http://www.inkscape.org/namespaces/inkscape"
   width="600"
   height="600"
   viewBox="0 0 600.00001 600.00001"
   id="svg18626"
   version="1.1"
   inkscape:version="0.91 r13725"
   sodipodi:docname="imposition.svg">
  <defs
     id="defs18628" />
  <sodipodi:namedview
     id="base"
     pagecolor="#ffffff"
     bordercolor="#666666"
     borderopacity="1.0"
     inkscape:pageopacity="0.0"
     inkscape:pageshadow="2"
     inkscape:zoom="0.70710678"
     inkscape:cx="432.50357"
     inkscape:cy="340.65176"
     inkscape:document-units="px"
     inkscape:current-layer="layer1"
     showgrid="false"
     units="px"
     inkscape:showpageshadow="false"
     inkscape:snap-bbox="true"
     inkscape:bbox-paths="true"
     inkscape:bbox-nodes="true"
     inkscape:snap-bbox-edge-midpoints="true"
     inkscape:snap-bbox-midpoints="true"
     inkscape:snap-nodes="true"
     inkscape:object-paths="true"
     inkscape:snap-intersection-paths="true"
     inkscape:object-nodes="true"
     inkscape:snap-smooth-nodes="true"
     inkscape:snap-midpoints="true"
     inkscape:snap-object-midpoints="true"
     inkscape:snap-center="true"
     inkscape:snap-page="true"
     inkscape:snap-grids="true"
     inkscape:snap-global="true"
     inkscape:window-width="1366"
     inkscape:window-height="705"
     inkscape:window-x="1440"
     inkscape:window-y="489"
     inkscape:window-maximized="1" />
  <metadata
     id="metadata18631">
    <rdf:RDF>
      <cc:Work
         rdf:about="">
        <dc:format>image/svg+xml</dc:format>
        <dc:type
           rdf:resource="http://purl.org/dc/dcmitype/StillImage" />
        <dc:title />
      </cc:Work>
    </rdf:RDF>
  </metadata>
  <g
     inkscape:label="Layer 1"
     inkscape:groupmode="layer"
     id="layer1"
     transform="translate(0,-452.36216)">
    <rect
       style="opacity:1;fill:#b3b3b3;fill-opacity:1;fill-rule:nonzero;stroke:none;stroke-width:61.90599823;stroke-linecap:butt;stroke-linejoin:round;stroke-miterlimit:4;stroke-dasharray:none;stroke-opacity:1"
       id="rect19709"
       width="600"
       height="47.477169"
       x="0"
       y="452.36215"
       rx="3.4594702e-06"
       ry="3.45947e-06" />
    <rect
       style="opacity:1;fill:#e6e6e6;fill-opacity:1;fill-rule:nonzero;stroke:none;stroke-width:61.90599823;stroke-linecap:butt;stroke-linejoin:round;stroke-miterlimit:4;stroke-dasharray:none;stroke-opacity:1"
       id="rect19711"
       width="420.19284"
       height="247.14285"
       x="0"
       y="805.2193"
       rx="3.45947e-06"
       ry="3.45947e-06" />
    <rect
       style="opacity:1;fill:#999999;fill-opacity:1;fill-rule:nonzero;stroke:none;stroke-width:0.99900001;stroke-linecap:butt;stroke-linejoin:round;stroke-miterlimit:4;stroke-dasharray:none;stroke-opacity:1"
       id="rect19713"
       width="600"
       height="10.364531"
       x="-2.1982416e-14"
       y="794.8548"
       rx="3.45947e-06"
       ry="3.4594702e-06" />
    <rect
       style="opacity:1;fill:#f2f2f2;fill-opacity:1;fill-rule:nonzero;stroke:none;stroke-width:1.85634267;stroke-linecap:butt;stroke-linejoin:round;stroke-miterlimit:4;stroke-dasharray:none;stroke-opacity:1"
       id="rect19715"
       width="179.80716"
       height="247.14287"
       x="420.19284"
       y="805.2193"
       rx="3.4594698e-06"
       ry="3.4594702e-06" />
    <path
       inkscape:connector-curvature="0"
       id="path19719"
       d="m 293.10968,801.92805 14.28572,0"
       style="fill:#ffffff;fill-rule:evenodd;stroke:#ffffff;stroke-width:2.5;stroke-linecap:round;stroke-linejoin:miter;stroke-miterlimit:4;stroke-dasharray:none;stroke-opacity:1" />
    <path
       style="fill:#ffffff;fill-rule:evenodd;stroke:#ffffff;stroke-width:2.5;stroke-linecap:round;stroke-linejoin:miter;stroke-miterlimit:4;stroke-dasharray:none;stroke-opacity:1"
       d="m 293.10968,797.92805 14.28572,0"
       id="path19721"
       inkscape:connector-curvature="0" />
    <circle
       style="opacity:1;fill:#fc605b;fill-opacity:1;fill-rule:nonzero;stroke:none;stroke-width:0.99900001;stroke-linecap:round;stroke-linejoin:round;stroke-miterlimit:4;stroke-dasharray:none;stroke-opacity:1"
       id="path19723"
       cx="33.571423"
       cy="476.10074"
       r="7.500001" />
    <circle
       r="7.500001"
       cy="476.10074"
       cx="57.571426"
       id="circle19725"
       style="opacity:1;fill:#fcbb3f;fill-opacity:1;fill-rule:nonzero;stroke:none;stroke-width:0.99900001;stroke-linecap:round;stroke-linejoin:round;stroke-miterlimit:4;stroke-dasharray:none;stroke-opacity:1" />
    <circle
       style="opacity:1;fill:#34c749;fill-opacity:1;fill-rule:nonzero;stroke:none;stroke-width:0.99900001;stroke-linecap:round;stroke-linejoin:round;stroke-miterlimit:4;stroke-dasharray:none;stroke-opacity:1"
       id="circle19727"
       cx="81.571426"
       cy="476.10074"
       r="7.500001" />
    <g
       transform="translate(-20,470.36216)"
       style="font-style:normal;font-weight:normal;font-size:40px;line-height:125%;font-family:sans-serif;letter-spacing:0px;word-spacing:0px;fill:#4d7c91;fill-opacity:1;stroke:none;stroke-width:1px;stroke-linecap:butt;stroke-linejoin:miter;stroke-opacity:1"
       id="flowRoot19747">
      <path
         d="m 44.4675,414.24604 6.93,3.06625 0,-1.99375 -4.5375,-1.7875 0,-0.0275 4.5375,-1.80125 0,-1.99375 -6.93,3.06625 0,1.47125 z"
         style="font-style:normal;font-variant:normal;font-weight:bold;font-stretch:normal;font-size:13.75px;font-family:'Museo Sans Cyrl';-inkscape-font-specification:'Museo Sans Cyrl Bold';fill:#4d7c91;fill-opacity:1"
         id="path19883" />
      <path
         d="m 53.344629,414.42479 2.035,0 0.22,-6.7925 -2.475,0 0.22,6.7925 z m -0.06875,3.03875 2.1725,0 0,-2.0625 -2.1725,0 0,2.0625 z"
         style="font-style:normal;font-variant:normal;font-weight:bold;font-stretch:normal;font-size:13.75px;font-family:'Museo Sans Cyrl';-inkscape-font-specification:'Museo Sans Cyrl Bold';fill:#4d7c91;fill-opacity:1"
         id="path19885" />
      <path
         d="m 57.519043,417.46354 3.4925,0 c 3.09375,0 5.07375,-1.8425 5.07375,-4.93625 0,-3.09375 -1.98,-4.895 -5.07375,-4.895 l -3.4925,0 0,9.83125 z m 2.40625,-2.0625 0,-5.70625 0.99,0 c 1.6225,0 2.68125,0.9625 2.68125,2.8325 0,1.88375 -1.0175,2.87375 -2.68125,2.87375 l -0.99,0 z"
         style="font-style:normal;font-variant:normal;font-weight:bold;font-stretch:normal;font-size:13.75px;font-family:'Museo Sans Cyrl';-inkscape-font-specification:'Museo Sans Cyrl Bold';fill:#ff5555;fill-opacity:1"
         id="path19887" />
      <path
         d="m 67.107305,412.48604 c 0,2.8875 2.09,5.1425 5.1425,5.1425 3.0525,0 5.1425,-2.255 5.1425,-5.1425 0,-2.81875 -2.09,-5.01875 -5.1425,-5.01875 -3.0525,0 -5.1425,2.2 -5.1425,5.01875 z m 2.48875,0 c 0,-1.60875 1.1,-2.81875 2.65375,-2.81875 1.55375,0 2.65375,1.21 2.65375,2.81875 0,1.6775 -1.1,2.9425 -2.65375,2.9425 -1.55375,0 -2.65375,-1.265 -2.65375,-2.9425 z"
         style="font-style:normal;font-variant:normal;font-weight:bold;font-stretch:normal;font-size:13.75px;font-family:'Museo Sans Cyrl';-inkscape-font-specification:'Museo Sans Cyrl Bold';fill:#ff5555;fill-opacity:1"
         id="path19889" />
      <path
         d="m 78.400352,412.52729 c 0,2.915 1.99375,5.10125 5.15625,5.10125 1.80125,0 3.09375,-0.75625 3.96,-1.65 l -1.2375,-1.76 c -0.67375,0.67375 -1.63625,1.21 -2.6125,1.21 -1.8975,0 -2.7775,-1.49875 -2.7775,-2.95625 0,-1.41625 0.81125,-2.805 2.7775,-2.805 0.88,0 1.82875,0.45375 2.46125,1.00375 l 1.11375,-1.815 c -0.9625,-0.94875 -2.365,-1.38875 -3.685,-1.38875 -3.03875,0 -5.15625,2.2 -5.15625,5.06 z"
         style="font-style:normal;font-variant:normal;font-weight:bold;font-stretch:normal;font-size:13.75px;font-family:'Museo Sans Cyrl';-inkscape-font-specification:'Museo Sans Cyrl Bold';fill:#ff5555;fill-opacity:1"
         id="path19891" />
      <path
         d="m 90.869453,417.46354 2.40625,0 0,-7.76875 2.98375,0 0,-2.0625 -8.37375,0 0,2.0625 2.98375,0 0,7.76875 z"
         style="font-style:normal;font-variant:normal;font-weight:bold;font-stretch:normal;font-size:13.75px;font-family:'Museo Sans Cyrl';-inkscape-font-specification:'Museo Sans Cyrl Bold';fill:#ff5555;fill-opacity:1"
         id="path19893" />
      <path
         d="m 99.529375,417.46354 2.406255,0 0,-4.02875 3.245,-5.8025 -2.73626,0 -1.09999,2.365 c -0.31625,0.67375 -0.59126,1.41625 -0.59126,1.41625 l -0.0275,0 c 0,0 -0.27499,-0.7425 -0.59124,-1.41625 l -1.113755,-2.365 -2.73625,0 3.245,5.8025 0,4.02875 z"
         style="font-style:normal;font-variant:normal;font-weight:bold;font-stretch:normal;font-size:13.75px;font-family:'Museo Sans Cyrl';-inkscape-font-specification:'Museo Sans Cyrl Bold';fill:#ff5555;fill-opacity:1"
         id="path19895" />
      <path
         d="m 106.07373,417.46354 2.40625,0 0,-3.03875 1.6775,0 c 1.91125,0 3.20375,-1.43 3.20375,-3.41 0,-1.98 -1.2925,-3.3825 -3.20375,-3.3825 l -4.08375,0 0,9.83125 z m 2.40625,-5.10125 0,-2.6675 1.22375,0 c 0.7975,0 1.21,0.53625 1.21,1.32 0,0.78375 -0.4125,1.3475 -1.25125,1.3475 l -1.1825,0 z"
         style="font-style:normal;font-variant:normal;font-weight:bold;font-stretch:normal;font-size:13.75px;font-family:'Museo Sans Cyrl';-inkscape-font-specification:'Museo Sans Cyrl Bold';fill:#ff5555;fill-opacity:1"
         id="path19897" />
      <path
         d="m 114.72119,417.46354 6.3525,0 0,-2.0625 -3.94625,0 0,-1.85625 2.9975,0 0,-2.0625 -2.9975,0 0,-1.7875 3.75375,0 0,-2.0625 -6.16,0 0,9.83125 z"
         style="font-style:normal;font-variant:normal;font-weight:bold;font-stretch:normal;font-size:13.75px;font-family:'Museo Sans Cyrl';-inkscape-font-specification:'Museo Sans Cyrl Bold';fill:#ff5555;fill-opacity:1"
         id="path19899" />
      <path
         d="m 125.82045,417.46354 2.37875,0 0,-3.19 c 0,-1.08625 0.50875,-1.8975 1.54,-1.8975 0.5225,0 0.78375,0.275 0.78375,0.935 l 0,4.1525 2.37875,0 0,-4.5925 c 0,-1.99375 -1.11375,-2.65375 -2.54375,-2.65375 -0.935,0 -1.76,0.42625 -2.15875,1.1275 l -0.0275,0 c 0,0 0.0275,-0.2475 0.0275,-0.605 l 0,-3.1075 -2.37875,0 0,9.83125 z"
         style="font-style:normal;font-variant:normal;font-weight:bold;font-stretch:normal;font-size:13.75px;font-family:'Museo Sans Cyrl';-inkscape-font-specification:'Museo Sans Cyrl Bold';fill:#ff5555;fill-opacity:1"
         id="path19901" />
      <path
         d="m 134.85355,414.85104 c 0,2.37875 2.18625,2.68125 3.31375,2.68125 0.275,0 0.4675,-0.0275 0.64625,-0.0412 l 0,-2.0625 c -0.15125,0.0138 -0.23375,0.0138 -0.31625,0.0138 -0.45375,0 -1.265,-0.11 -1.265,-0.9075 l 0,-2.1725 1.485,0 0,-1.85625 -1.485,0 0,-2.035 -2.31,0 0,2.035 -0.97625,0 0,1.85625 0.9075,0 0,2.48875 z"
         style="font-style:normal;font-variant:normal;font-weight:bold;font-stretch:normal;font-size:13.75px;font-family:'Museo Sans Cyrl';-inkscape-font-specification:'Museo Sans Cyrl Bold';fill:#ff5555;fill-opacity:1"
         id="path19903" />
      <path
         d="m 140.0807,417.46354 2.37875,0 0,-2.9975 c 0,-0.97625 0.275,-2.09 1.36125,-2.09 0.45375,0 0.55,0.37125 0.55,0.89375 l 0,4.19375 2.37875,0 0,-2.9975 c 0,-1.05875 0.33,-2.09 1.36125,-2.09 0.45375,0 0.55,0.37125 0.55,0.89375 l 0,4.19375 2.37875,0 0,-4.5925 c 0,-1.9525 -1.00375,-2.65375 -2.29625,-2.65375 -1.05875,0 -1.8975,0.605 -2.26875,1.19625 l -0.0275,0 c -0.37125,-0.7975 -1.08625,-1.19625 -1.98,-1.19625 -1.11375,0 -1.77375,0.72875 -2.10375,1.22375 l -0.0275,0 c 0,0 0.0275,-0.20625 0.0275,-0.44 l 0,-0.61875 -2.2825,0 0,7.08125 z"
         style="font-style:normal;font-variant:normal;font-weight:bold;font-stretch:normal;font-size:13.75px;font-family:'Museo Sans Cyrl';-inkscape-font-specification:'Museo Sans Cyrl Bold';fill:#ff5555;fill-opacity:1"
         id="path19905" />
      <path
         d="m 152.55475,414.85104 c 0,2.37875 1.3475,2.68125 2.6125,2.68125 0.3025,0 0.55,-0.0275 0.715,-0.0412 l 0,-2.0625 c -0.11,0.0138 -0.22,0.0138 -0.28875,0.0138 -0.53625,0 -0.66,-0.23375 -0.66,-0.9075 l 0,-6.9025 -2.37875,0 0,7.21875 z"
         style="font-style:normal;font-variant:normal;font-weight:bold;font-stretch:normal;font-size:13.75px;font-family:'Museo Sans Cyrl';-inkscape-font-specification:'Museo Sans Cyrl Bold';fill:#ff5555;fill-opacity:1"
         id="path19907" />
      <path
         d="m 157.0409,417.31229 6.93,-3.06625 0,-1.47125 -6.93,-3.06625 0,1.99375 4.5375,1.80125 0,0.0275 -4.5375,1.7875 0,1.99375 z"
         style="font-style:normal;font-variant:normal;font-weight:bold;font-stretch:normal;font-size:13.75px;font-family:'Museo Sans Cyrl';-inkscape-font-specification:'Museo Sans Cyrl Bold';fill:#4d7c91;fill-opacity:1"
         id="path19909" />
      <path
         d="m 44.4675,431.43354 6.93,3.06625 0,-1.99375 -4.5375,-1.7875 0,-0.0275 4.5375,-1.80125 0,-1.99375 -6.93,3.06625 0,1.47125 z"
         style="font-style:normal;font-variant:normal;font-weight:bold;font-stretch:normal;font-size:13.75px;font-family:'Museo Sans Cyrl';-inkscape-font-specification:'Museo Sans Cyrl Bold';fill:#4d7c91;fill-opacity:1"
         id="path19911" />
      <path
         d="m 53.042129,434.65104 2.37875,0 0,-3.19 c 0,-1.08625 0.50875,-1.8975 1.54,-1.8975 0.5225,0 0.78375,0.275 0.78375,0.935 l 0,4.1525 2.37875,0 0,-4.5925 c 0,-1.99375 -1.11375,-2.65375 -2.54375,-2.65375 -0.935,0 -1.76,0.42625 -2.15875,1.1275 l -0.0275,0 c 0,0 0.0275,-0.2475 0.0275,-0.605 l 0,-3.1075 -2.37875,0 0,9.83125 z"
         style="font-style:normal;font-variant:normal;font-weight:bold;font-stretch:normal;font-size:13.75px;font-family:'Museo Sans Cyrl';-inkscape-font-specification:'Museo Sans Cyrl Bold';fill:#ff5555;fill-opacity:1"
         id="path19913" />
      <path
         d="m 62.075234,432.03854 c 0,2.37875 2.18625,2.68125 3.31375,2.68125 0.275,0 0.4675,-0.0275 0.64625,-0.0412 l 0,-2.0625 c -0.15125,0.0138 -0.23375,0.0138 -0.31625,0.0138 -0.45375,0 -1.265,-0.11 -1.265,-0.9075 l 0,-2.1725 1.485,0 0,-1.85625 -1.485,0 0,-2.035 -2.31,0 0,2.035 -0.97625,0 0,1.85625 0.9075,0 0,2.48875 z"
         style="font-style:normal;font-variant:normal;font-weight:bold;font-stretch:normal;font-size:13.75px;font-family:'Museo Sans Cyrl';-inkscape-font-specification:'Museo Sans Cyrl Bold';fill:#ff5555;fill-opacity:1"
         id="path19915" />
      <path
         d="m 67.302383,434.65104 2.37875,0 0,-2.9975 c 0,-0.97625 0.275,-2.09 1.36125,-2.09 0.45375,0 0.55,0.37125 0.55,0.89375 l 0,4.19375 2.37875,0 0,-2.9975 c 0,-1.05875 0.33,-2.09 1.36125,-2.09 0.45375,0 0.55,0.37125 0.55,0.89375 l 0,4.19375 2.37875,0 0,-4.5925 c 0,-1.9525 -1.00375,-2.65375 -2.29625,-2.65375 -1.05875,0 -1.8975,0.605 -2.26875,1.19625 l -0.0275,0 c -0.37125,-0.7975 -1.08625,-1.19625 -1.98,-1.19625 -1.11375,0 -1.77375,0.72875 -2.10375,1.22375 l -0.0275,0 c 0,0 0.0275,-0.20625 0.0275,-0.44 l 0,-0.61875 -2.2825,0 0,7.08125 z"
         style="font-style:normal;font-variant:normal;font-weight:bold;font-stretch:normal;font-size:13.75px;font-family:'Museo Sans Cyrl';-inkscape-font-specification:'Museo Sans Cyrl Bold';fill:#ff5555;fill-opacity:1"
         id="path19917" />
      <path
         d="m 79.776426,432.03854 c 0,2.37875 1.3475,2.68125 2.6125,2.68125 0.3025,0 0.55,-0.0275 0.715,-0.0412 l 0,-2.0625 c -0.11,0.0138 -0.22,0.0138 -0.28875,0.0138 -0.53625,0 -0.66,-0.23375 -0.66,-0.9075 l 0,-6.9025 -2.37875,0 0,7.21875 z"
         style="font-style:normal;font-variant:normal;font-weight:bold;font-stretch:normal;font-size:13.75px;font-family:'Museo Sans Cyrl';-inkscape-font-specification:'Museo Sans Cyrl Bold';fill:#ff5555;fill-opacity:1"
         id="path19919" />
      <path
         d="m 84.262578,434.49979 6.93,-3.06625 0,-1.47125 -6.93,-3.06625 0,1.99375 4.5375,1.80125 0,0.0275 -4.5375,1.7875 0,1.99375 z"
         style="font-style:normal;font-variant:normal;font-weight:bold;font-stretch:normal;font-size:13.75px;font-family:'Museo Sans Cyrl';-inkscape-font-specification:'Museo Sans Cyrl Bold';fill:#4d7c91;fill-opacity:1"
         id="path19921" />
      <path
         d="m 54.78,448.62104 6.93,3.06625 0,-1.99375 -4.5375,-1.7875 0,-0.0275 4.5375,-1.80125 0,-1.99375 -6.93,3.06625 0,1.47125 z"
         style="font-style:normal;font-variant:normal;font-weight:bold;font-stretch:normal;font-size:13.75px;font-family:'Museo Sans Cyrl';-inkscape-font-specification:'Museo Sans Cyrl Bold';fill:#4d7c91;fill-opacity:1"
         id="path19923" />
      <path
         d="m 63.354629,451.83854 2.37875,0 0,-3.19 c 0,-1.08625 0.50875,-1.8975 1.54,-1.8975 0.5225,0 0.78375,0.275 0.78375,0.935 l 0,4.1525 2.37875,0 0,-4.5925 c 0,-1.99375 -1.11375,-2.65375 -2.54375,-2.65375 -0.935,0 -1.76,0.42625 -2.15875,1.1275 l -0.0275,0 c 0,0 0.0275,-0.2475 0.0275,-0.605 l 0,-3.1075 -2.37875,0 0,9.83125 z"
         style="font-style:normal;font-variant:normal;font-weight:bold;font-stretch:normal;font-size:13.75px;font-family:'Museo Sans Cyrl';-inkscape-font-specification:'Museo Sans Cyrl Bold';fill:#ff5555;fill-opacity:1"
         id="path19925" />
      <path
         d="m 71.576484,448.29104 c 0,1.88375 1.36125,3.7125 3.89125,3.7125 1.08625,0 2.255,-0.37125 3.025,-1.03125 l -0.88,-1.66375 c -0.5775,0.385 -1.25125,0.715 -1.9525,0.715 -0.75625,0 -1.47125,-0.39875 -1.65,-1.265 l 4.46875,0 c 0.0275,-0.2475 0.055,-0.495 0.055,-0.7425 0,-1.96625 -1.1825,-3.42375 -3.2725,-3.42375 -2.2825,0 -3.685,1.6225 -3.685,3.69875 z m 2.48875,-0.89375 c 0.12375,-0.56375 0.45375,-1.05875 1.14125,-1.05875 0.605,0 0.97625,0.48125 0.97625,1.05875 l -2.1175,0 z"
         style="font-style:normal;font-variant:normal;font-weight:bold;font-stretch:normal;font-size:13.75px;font-family:'Museo Sans Cyrl';-inkscape-font-specification:'Museo Sans Cyrl Bold';fill:#ff5555;fill-opacity:1"
         id="path19927" />
      <path
         d="m 79.26832,449.84479 c 0,1.22375 0.94875,2.15875 2.31,2.15875 0.81125,0 1.63625,-0.37125 2.10375,-1.03125 l 0.0275,0 c 0,0 -0.0275,0.20625 -0.0275,0.44 l 0,0.42625 2.1725,0 0,-4.35875 c 0,-1.80125 -1.21,-2.8875 -3.1625,-2.8875 -1.155,0 -2.3925,0.45375 -2.9975,0.92125 l 0.825,1.6775 c 0.56375,-0.37125 1.265,-0.67375 1.9525,-0.67375 0.5225,0 1.00375,0.1925 1.00375,0.78375 l 0,0.12375 -0.20625,0 c -1.74625,0 -4.00125,0.5225 -4.00125,2.42 z m 2.35125,-0.22 c 0,-0.64625 0.935,-0.83875 1.66375,-0.83875 l 0.22,0 0,0.1925 c 0,0.5775 -0.5225,1.25125 -1.21,1.25125 -0.44,0 -0.67375,-0.275 -0.67375,-0.605 z"
         style="font-style:normal;font-variant:normal;font-weight:bold;font-stretch:normal;font-size:13.75px;font-family:'Museo Sans Cyrl';-inkscape-font-specification:'Museo Sans Cyrl Bold';fill:#ff5555;fill-opacity:1"
         id="path19929" />
      <path
         d="m 86.992168,448.29104 c 0,2.2 1.265,3.7125 3.19,3.7125 0.83875,0 1.60875,-0.3575 2.04875,-1.03125 l 0.0275,0 c 0,0 -0.01375,0.17875 -0.01375,0.39875 l 0,0.4675 2.2275,0 0,-9.83125 -2.37875,0 0,2.8325 c 0,0.17875 0.01375,0.31625 0.01375,0.31625 l -0.0275,0 c -0.4675,-0.4675 -1.22375,-0.56375 -1.85625,-0.56375 -1.88375,0 -3.23125,1.4575 -3.23125,3.69875 z m 2.3925,0 c 0,-1.08625 0.64625,-1.69125 1.38875,-1.69125 0.935,0 1.38875,0.83875 1.38875,1.69125 0,1.22375 -0.67375,1.74625 -1.38875,1.74625 -0.825,0 -1.38875,-0.6875 -1.38875,-1.74625 z"
         style="font-style:normal;font-variant:normal;font-weight:bold;font-stretch:normal;font-size:13.75px;font-family:'Museo Sans Cyrl';-inkscape-font-specification:'Museo Sans Cyrl Bold';fill:#ff5555;fill-opacity:1"
         id="path19931" />
      <path
         d="m 96.10584,451.68729 6.93,-3.06625 0,-1.47125 -6.93,-3.06625 0,1.99375 4.5375,1.80125 0,0.0275 -4.5375,1.7875 0,1.99375 z"
         style="font-style:normal;font-variant:normal;font-weight:bold;font-stretch:normal;font-size:13.75px;font-family:'Museo Sans Cyrl';-inkscape-font-specification:'Museo Sans Cyrl Bold';fill:#4d7c91;fill-opacity:1"
         id="path19933" />
      <path
         d="m 65.0925,465.80854 6.93,3.06625 0,-1.99375 -4.5375,-1.7875 0,-0.0275 4.5375,-1.80125 0,-1.99375 -6.93,3.06625 0,1.47125 z"
         style="font-style:normal;font-variant:normal;font-weight:bold;font-stretch:normal;font-size:13.75px;font-family:'Museo Sans Cyrl';-inkscape-font-specification:'Museo Sans Cyrl Bold';fill:#4d7c91;fill-opacity:1"
         id="path19935" />
      <path
         d="m 73.667129,469.02604 2.37875,0 0,-2.9975 c 0,-0.97625 0.275,-2.09 1.36125,-2.09 0.45375,0 0.55,0.37125 0.55,0.89375 l 0,4.19375 2.37875,0 0,-2.9975 c 0,-1.05875 0.33,-2.09 1.36125,-2.09 0.45375,0 0.55,0.37125 0.55,0.89375 l 0,4.19375 2.37875,0 0,-4.5925 c 0,-1.9525 -1.00375,-2.65375 -2.29625,-2.65375 -1.05875,0 -1.8975,0.605 -2.26875,1.19625 l -0.0275,0 c -0.37125,-0.7975 -1.08625,-1.19625 -1.98,-1.19625 -1.11375,0 -1.77375,0.72875 -2.10375,1.22375 l -0.0275,0 c 0,0 0.0275,-0.20625 0.0275,-0.44 l 0,-0.61875 -2.2825,0 0,7.08125 z"
         style="font-style:normal;font-variant:normal;font-weight:bold;font-stretch:normal;font-size:13.75px;font-family:'Museo Sans Cyrl';-inkscape-font-specification:'Museo Sans Cyrl Bold';fill:#ff5555;fill-opacity:1"
         id="path19937" />
      <path
         d="m 85.756172,465.47854 c 0,1.88375 1.36125,3.7125 3.89125,3.7125 1.08625,0 2.255,-0.37125 3.025,-1.03125 l -0.88,-1.66375 c -0.5775,0.385 -1.25125,0.715 -1.9525,0.715 -0.75625,0 -1.47125,-0.39875 -1.65,-1.265 l 4.46875,0 c 0.0275,-0.2475 0.055,-0.495 0.055,-0.7425 0,-1.96625 -1.1825,-3.42375 -3.2725,-3.42375 -2.2825,0 -3.685,1.6225 -3.685,3.69875 z m 2.48875,-0.89375 c 0.12375,-0.56375 0.45375,-1.05875 1.14125,-1.05875 0.605,0 0.97625,0.48125 0.97625,1.05875 l -2.1175,0 z"
         style="font-style:normal;font-variant:normal;font-weight:bold;font-stretch:normal;font-size:13.75px;font-family:'Museo Sans Cyrl';-inkscape-font-specification:'Museo Sans Cyrl Bold';fill:#ff5555;fill-opacity:1"
         id="path19939" />
      <path
         d="m 94.355508,466.41354 c 0,2.37875 2.18625,2.68125 3.31375,2.68125 0.275,0 0.4675,-0.0275 0.64625,-0.0412 l 0,-2.0625 c -0.15125,0.0138 -0.23375,0.0138 -0.31625,0.0138 -0.45375,0 -1.265,-0.11 -1.265,-0.9075 l 0,-2.1725 1.485,0 0,-1.85625 -1.485,0 0,-2.035 -2.31,0 0,2.035 -0.97625,0 0,1.85625 0.9075,0 0,2.48875 z"
         style="font-style:normal;font-variant:normal;font-weight:bold;font-stretch:normal;font-size:13.75px;font-family:'Museo Sans Cyrl';-inkscape-font-specification:'Museo Sans Cyrl Bold';fill:#ff5555;fill-opacity:1"
         id="path19941" />
      <path
         d="m 99.087656,467.03229 c 0,1.22375 0.948754,2.15875 2.310004,2.15875 0.81125,0 1.63625,-0.37125 2.10375,-1.03125 l 0.0275,0 c 0,0 -0.0275,0.20625 -0.0275,0.44 l 0,0.42625 2.1725,0 0,-4.35875 c 0,-1.80125 -1.21,-2.8875 -3.1625,-2.8875 -1.155,0 -2.3925,0.45375 -2.997504,0.92125 l 0.825004,1.6775 c 0.56375,-0.37125 1.265,-0.67375 1.9525,-0.67375 0.5225,0 1.00375,0.1925 1.00375,0.78375 l 0,0.12375 -0.20625,0 c -1.74625,0 -4.001254,0.5225 -4.001254,2.42 z m 2.351254,-0.22 c 0,-0.64625 0.935,-0.83875 1.66375,-0.83875 l 0.22,0 0,0.1925 c 0,0.5775 -0.5225,1.25125 -1.21,1.25125 -0.44,0 -0.67375,-0.275 -0.67375,-0.605 z"
         style="font-style:normal;font-variant:normal;font-weight:bold;font-stretch:normal;font-size:13.75px;font-family:'Museo Sans Cyrl';-inkscape-font-specification:'Museo Sans Cyrl Bold';fill:#ff5555;fill-opacity:1"
         id="path19943" />
      <path
         d="m 110.2215,465.47854 c 0,1.9525 1.41625,3.7125 3.94625,3.7125 1.1825,0 2.3375,-0.45375 3.03875,-1.16875 l -0.86625,-1.66375 c -0.50875,0.44 -1.25125,0.8525 -1.93875,0.8525 -1.19625,0 -1.77375,-0.92125 -1.77375,-1.76 0,-0.83875 0.56375,-1.69125 1.69125,-1.69125 0.61875,0 1.25125,0.28875 1.66375,0.6875 l 1.00375,-1.595 c -0.70125,-0.75625 -1.82875,-1.0725 -2.81875,-1.0725 -2.54375,0 -3.94625,1.80125 -3.94625,3.69875 z"
         style="font-style:normal;font-variant:normal;font-weight:bold;font-stretch:normal;font-size:13.75px;font-family:'Museo Sans Cyrl';-inkscape-font-specification:'Museo Sans Cyrl Bold';fill:#fcbb3f;fill-opacity:1"
         id="path19945" />
      <path
         d="m 118.22035,469.02604 2.37875,0 0,-3.19 c 0,-1.08625 0.50875,-1.8975 1.54,-1.8975 0.5225,0 0.78375,0.275 0.78375,0.935 l 0,4.1525 2.37875,0 0,-4.5925 c 0,-1.99375 -1.11375,-2.65375 -2.54375,-2.65375 -0.935,0 -1.76,0.42625 -2.15875,1.1275 l -0.0275,0 c 0,0 0.0275,-0.2475 0.0275,-0.605 l 0,-3.1075 -2.37875,0 0,9.83125 z"
         style="font-style:normal;font-variant:normal;font-weight:bold;font-stretch:normal;font-size:13.75px;font-family:'Museo Sans Cyrl';-inkscape-font-specification:'Museo Sans Cyrl Bold';fill:#fcbb3f;fill-opacity:1"
         id="path19947" />
      <path
         d="m 126.34596,467.03229 c 0,1.22375 0.94875,2.15875 2.31,2.15875 0.81125,0 1.63625,-0.37125 2.10375,-1.03125 l 0.0275,0 c 0,0 -0.0275,0.20625 -0.0275,0.44 l 0,0.42625 2.1725,0 0,-4.35875 c 0,-1.80125 -1.21,-2.8875 -3.1625,-2.8875 -1.155,0 -2.3925,0.45375 -2.9975,0.92125 l 0.825,1.6775 c 0.56375,-0.37125 1.265,-0.67375 1.9525,-0.67375 0.5225,0 1.00375,0.1925 1.00375,0.78375 l 0,0.12375 -0.20625,0 c -1.74625,0 -4.00125,0.5225 -4.00125,2.42 z m 2.35125,-0.22 c 0,-0.64625 0.935,-0.83875 1.66375,-0.83875 l 0.22,0 0,0.1925 c 0,0.5775 -0.5225,1.25125 -1.21,1.25125 -0.44,0 -0.67375,-0.275 -0.67375,-0.605 z"
         style="font-style:normal;font-variant:normal;font-weight:bold;font-stretch:normal;font-size:13.75px;font-family:'Museo Sans Cyrl';-inkscape-font-specification:'Museo Sans Cyrl Bold';fill:#fcbb3f;fill-opacity:1"
         id="path19949" />
      <path
         d="m 134.44105,469.02604 2.37875,0 0,-2.75 c 0,-1.2925 0.6325,-2.13125 1.9525,-2.13125 0.165,0 0.39875,0.0138 0.48125,0.0412 l 0,-2.3375 c -0.0825,-0.0138 -0.17875,-0.0275 -0.275,-0.0275 -1.05875,0 -1.9525,0.7975 -2.255,1.76 l -0.0275,0 c 0,0 0.0275,-0.20625 0.0275,-0.44 l 0,-1.19625 -2.2825,0 0,7.08125 z"
         style="font-style:normal;font-variant:normal;font-weight:bold;font-stretch:normal;font-size:13.75px;font-family:'Museo Sans Cyrl';-inkscape-font-specification:'Museo Sans Cyrl Bold';fill:#fcbb3f;fill-opacity:1"
         id="path19951" />
      <path
         d="m 139.7593,468.14604 c 0.78375,0.70125 1.87,1.045 2.8875,1.045 1.815,0 2.915,-1.00375 2.915,-2.32375 0,-2.29625 -3.31375,-2.1175 -3.31375,-2.86 0,-0.1925 0.15125,-0.34375 0.66,-0.34375 0.605,0 1.375,0.2475 1.7875,0.5775 l 0.81125,-1.65 c -0.715,-0.5775 -1.6225,-0.81125 -2.53,-0.81125 -1.63625,0 -2.9425,0.78375 -2.9425,2.24125 0,2.32375 3.31375,2.15875 3.31375,2.915 0,0.22 -0.165,0.37125 -0.64625,0.37125 -0.67375,0 -1.4025,-0.275 -1.925,-0.715 l -1.0175,1.55375 z"
         style="font-style:normal;font-variant:normal;font-weight:bold;font-stretch:normal;font-size:13.75px;font-family:'Museo Sans Cyrl';-inkscape-font-specification:'Museo Sans Cyrl Bold';fill:#fcbb3f;fill-opacity:1"
         id="path19953" />
      <path
         d="m 146.36896,465.47854 c 0,1.88375 1.36125,3.7125 3.89125,3.7125 1.08625,0 2.255,-0.37125 3.025,-1.03125 l -0.88,-1.66375 c -0.5775,0.385 -1.25125,0.715 -1.9525,0.715 -0.75625,0 -1.47125,-0.39875 -1.65,-1.265 l 4.46875,0 c 0.0275,-0.2475 0.055,-0.495 0.055,-0.7425 0,-1.96625 -1.1825,-3.42375 -3.2725,-3.42375 -2.2825,0 -3.685,1.6225 -3.685,3.69875 z m 2.48875,-0.89375 c 0.12375,-0.56375 0.45375,-1.05875 1.14125,-1.05875 0.605,0 0.97625,0.48125 0.97625,1.05875 l -2.1175,0 z"
         style="font-style:normal;font-variant:normal;font-weight:bold;font-stretch:normal;font-size:13.75px;font-family:'Museo Sans Cyrl';-inkscape-font-specification:'Museo Sans Cyrl Bold';fill:#fcbb3f;fill-opacity:1"
         id="path19955" />
      <path
         d="m 154.9683,466.41354 c 0,2.37875 2.18625,2.68125 3.31375,2.68125 0.275,0 0.4675,-0.0275 0.64625,-0.0412 l 0,-2.0625 c -0.15125,0.0138 -0.23375,0.0138 -0.31625,0.0138 -0.45375,0 -1.265,-0.11 -1.265,-0.9075 l 0,-2.1725 1.485,0 0,-1.85625 -1.485,0 0,-2.035 -2.31,0 0,2.035 -0.97625,0 0,1.85625 0.9075,0 0,2.48875 z"
         style="font-style:normal;font-variant:normal;font-weight:bold;font-stretch:normal;font-size:13.75px;font-family:'Museo Sans Cyrl';-inkscape-font-specification:'Museo Sans Cyrl Bold';fill:#fcbb3f;fill-opacity:1"
         id="path19957" />
      <path
         d="m 160.0442,464.39229 6.9575,0 0,-1.7875 -6.9575,0 0,1.7875 z m 0,3.1625 6.9575,0 0,-1.7875 -6.9575,0 0,1.7875 z"
         style="font-style:normal;font-variant:normal;font-weight:bold;font-stretch:normal;font-size:13.75px;font-family:'Museo Sans Cyrl';-inkscape-font-specification:'Museo Sans Cyrl Bold';fill:#4d7c91;fill-opacity:1"
         id="path19959" />
      <path
         d="m 171.12133,462.28854 1.6775,0 0,-3.3 -1.6775,0 0,3.3 z m -2.62625,0 1.6775,0 0,-3.3 -1.6775,0 0,3.3 z"
         style="font-style:normal;font-variant:normal;font-weight:bold;font-stretch:normal;font-size:13.75px;font-family:'Museo Sans Cyrl';-inkscape-font-specification:'Museo Sans Cyrl Bold';fill:#4d7c91;fill-opacity:1"
         id="path19961" />
      <path
         d="m 174.57945,465.40979 c 0,2.21375 1.6225,3.78125 4.125,3.78125 2.475,0 4.0975,-1.5675 4.0975,-3.78125 l 0,-6.215 -2.40625,0 0,6.215 c 0,1.03125 -0.67375,1.58125 -1.705,1.58125 -1.03125,0 -1.705,-0.55 -1.705,-1.58125 l 0,-6.215 -2.40625,0 0,6.215 z"
         style="font-style:normal;font-variant:normal;font-weight:bold;font-stretch:normal;font-size:13.75px;font-family:'Museo Sans Cyrl';-inkscape-font-specification:'Museo Sans Cyrl Bold';fill:#34c749;fill-opacity:1"
         id="path19963" />
      <path
         d="m 186.87775,469.02604 2.40625,0 0,-7.76875 2.98375,0 0,-2.0625 -8.37375,0 0,2.0625 2.98375,0 0,7.76875 z"
         style="font-style:normal;font-variant:normal;font-weight:bold;font-stretch:normal;font-size:13.75px;font-family:'Museo Sans Cyrl';-inkscape-font-specification:'Museo Sans Cyrl Bold';fill:#34c749;fill-opacity:1"
         id="path19965" />
      <path
         d="m 193.46143,469.02604 2.40625,0 0,-3.64375 2.9975,0 0,-2.0625 -2.9975,0 0,-2.0625 3.61625,0 0,-2.0625 -6.0225,0 0,9.83125 z"
         style="font-style:normal;font-variant:normal;font-weight:bold;font-stretch:normal;font-size:13.75px;font-family:'Museo Sans Cyrl';-inkscape-font-specification:'Museo Sans Cyrl Bold';fill:#34c749;fill-opacity:1"
         id="path19967" />
      <path
         d="m 200.62668,466.11104 4.3175,0 0,-2.0625 -4.3175,0 0,2.0625 z"
         style="font-style:normal;font-variant:normal;font-weight:bold;font-stretch:normal;font-size:13.75px;font-family:'Museo Sans Cyrl';-inkscape-font-specification:'Museo Sans Cyrl Bold';fill:#34c749;fill-opacity:1"
         id="path19969" />
      <path
         d="m 206.34174,466.13854 c 0,1.5675 1.25125,3.0525 3.64375,3.0525 2.43375,0 3.64375,-1.49875 3.64375,-2.9975 0,-0.99 -0.495,-1.60875 -1.155,-2.0625 0.26125,-0.31625 0.9625,-1.265 0.9625,-2.255 0,-1.82875 -1.49875,-2.84625 -3.3275,-2.84625 -2.29625,0 -3.3,1.4025 -3.3,2.8325 0,0.825 0.37125,1.41625 0.89375,1.88375 -0.39875,0.3025 -1.36125,1.1825 -1.36125,2.3925 z m 4.38625,-2.87375 c -0.8525,-0.3575 -1.5675,-0.70125 -1.5675,-1.3475 0,-0.42625 0.275,-0.77 0.89375,-0.77 0.64625,0 1.03125,0.3575 1.03125,0.9075 0,0.56375 -0.22,0.99 -0.3575,1.21 z m -1.925,2.6675 c 0,-0.53625 0.3025,-0.9625 0.53625,-1.21 0.9625,0.45375 1.82875,0.78375 1.82875,1.3475 0,0.64625 -0.45375,1.00375 -1.1825,1.00375 -0.66,0 -1.1825,-0.50875 -1.1825,-1.14125 z"
         style="font-style:normal;font-variant:normal;font-weight:bold;font-stretch:normal;font-size:13.75px;font-family:'Museo Sans Cyrl';-inkscape-font-specification:'Museo Sans Cyrl Bold';fill:#34c749;fill-opacity:1"
         id="path19971" />
      <path
         d="m 217.76928,462.28854 1.6775,0 0,-3.3 -1.6775,0 0,3.3 z m -2.62625,0 1.6775,0 0,-3.3 -1.6775,0 0,3.3 z"
         style="font-style:normal;font-variant:normal;font-weight:bold;font-stretch:normal;font-size:13.75px;font-family:'Museo Sans Cyrl';-inkscape-font-specification:'Museo Sans Cyrl Bold';fill:#4d7c91;fill-opacity:1"
         id="path19973" />
      <path
         d="m 221.1449,468.87479 6.93,-3.06625 0,-1.47125 -6.93,-3.06625 0,1.99375 4.5375,1.80125 0,0.0275 -4.5375,1.7875 0,1.99375 z"
         style="font-style:normal;font-variant:normal;font-weight:bold;font-stretch:normal;font-size:13.75px;font-family:'Museo Sans Cyrl';-inkscape-font-specification:'Museo Sans Cyrl Bold';fill:#4d7c91;fill-opacity:1"
         id="path19975" />
      <path
         d="m 65.817598,482.99604 6.93,3.06625 0,-1.99375 -4.5375,-1.7875 0,-0.0275 4.5375,-1.80125 0,-1.99375 -6.93,3.06625 0,1.47125 z"
         style="font-style:normal;font-variant:normal;font-weight:bold;font-stretch:normal;font-size:13.75px;font-family:'Museo Sans Cyrl';-inkscape-font-specification:'Museo Sans Cyrl Bold';fill:#4d7c91;fill-opacity:1"
         id="path20017" />
      <path
         d="m 74.804727,483.60104 c 0,2.37875 2.18625,2.68125 3.31375,2.68125 0.275,0 0.4675,-0.0275 0.64625,-0.0412 l 0,-2.0625 c -0.15125,0.0138 -0.23375,0.0138 -0.31625,0.0138 -0.45375,0 -1.265,-0.11 -1.265,-0.9075 l 0,-2.1725 1.485,0 0,-1.85625 -1.485,0 0,-2.035 -2.31,0 0,2.035 -0.97625,0 0,1.85625 0.9075,0 0,2.48875 z"
         style="font-style:normal;font-variant:normal;font-weight:bold;font-stretch:normal;font-size:13.75px;font-family:'Museo Sans Cyrl';-inkscape-font-specification:'Museo Sans Cyrl Bold';fill:#ff5555;fill-opacity:1"
         id="path20019" />
      <path
         d="m 80.059375,478.23854 2.32375,0 0,-1.85625 -2.32375,0 0,1.85625 z m -0.0275,7.975 2.37875,0 0,-7.08125 -2.37875,0 0,7.08125 z"
         style="font-style:normal;font-variant:normal;font-weight:bold;font-stretch:normal;font-size:13.75px;font-family:'Museo Sans Cyrl';-inkscape-font-specification:'Museo Sans Cyrl Bold';fill:#ff5555;fill-opacity:1"
         id="path20021" />
      <path
         d="m 84.418984,483.60104 c 0,2.37875 2.18625,2.68125 3.31375,2.68125 0.275,0 0.4675,-0.0275 0.64625,-0.0412 l 0,-2.0625 c -0.15125,0.0138 -0.23375,0.0138 -0.31625,0.0138 -0.45375,0 -1.265,-0.11 -1.265,-0.9075 l 0,-2.1725 1.485,0 0,-1.85625 -1.485,0 0,-2.035 -2.31,0 0,2.035 -0.97625,0 0,1.85625 0.9075,0 0,2.48875 z"
         style="font-style:normal;font-variant:normal;font-weight:bold;font-stretch:normal;font-size:13.75px;font-family:'Museo Sans Cyrl';-inkscape-font-specification:'Museo Sans Cyrl Bold';fill:#ff5555;fill-opacity:1"
         id="path20023" />
      <path
         d="m 89.632383,483.60104 c 0,2.37875 1.3475,2.68125 2.6125,2.68125 0.3025,0 0.55,-0.0275 0.715,-0.0412 l 0,-2.0625 c -0.11,0.0138 -0.22,0.0138 -0.28875,0.0138 -0.53625,0 -0.66,-0.23375 -0.66,-0.9075 l 0,-6.9025 -2.37875,0 0,7.21875 z"
         style="font-style:normal;font-variant:normal;font-weight:bold;font-stretch:normal;font-size:13.75px;font-family:'Museo Sans Cyrl';-inkscape-font-specification:'Museo Sans Cyrl Bold';fill:#ff5555;fill-opacity:1"
         id="path20025" />
      <path
         d="m 93.678535,482.66604 c 0,1.88375 1.36125,3.7125 3.89125,3.7125 1.08625,0 2.255,-0.37125 3.025005,-1.03125 l -0.880005,-1.66375 c -0.5775,0.385 -1.25125,0.715 -1.9525,0.715 -0.75625,0 -1.47125,-0.39875 -1.65,-1.265 l 4.468755,0 c 0.0275,-0.2475 0.055,-0.495 0.055,-0.7425 0,-1.96625 -1.182505,-3.42375 -3.272505,-3.42375 -2.2825,0 -3.685,1.6225 -3.685,3.69875 z m 2.48875,-0.89375 c 0.12375,-0.56375 0.45375,-1.05875 1.14125,-1.05875 0.605,0 0.97625,0.48125 0.97625,1.05875 l -2.1175,0 z"
         style="font-style:normal;font-variant:normal;font-weight:bold;font-stretch:normal;font-size:13.75px;font-family:'Museo Sans Cyrl';-inkscape-font-specification:'Museo Sans Cyrl Bold';fill:#ff5555;fill-opacity:1"
         id="path20027" />
      <path
         d="m 101.90662,486.06229 6.93,-3.06625 0,-1.47125 -6.93,-3.06625 0,1.99375 4.5375,1.80125 0,0.0275 -4.5375,1.7875 0,1.99375 z"
         style="font-style:normal;font-variant:normal;font-weight:bold;font-stretch:normal;font-size:13.75px;font-family:'Museo Sans Cyrl';-inkscape-font-specification:'Museo Sans Cyrl Bold';fill:#4d7c91;fill-opacity:1"
         id="path20029" />
      <path
         d="m 109.78,482.99604 6.93,3.06625 0,-1.99375 -4.5375,-1.7875 0,-0.0275 4.5375,-1.80125 0,-1.99375 -6.93,3.06625 0,1.47125 z"
         style="font-style:normal;font-variant:normal;font-weight:bold;font-stretch:normal;font-size:13.75px;font-family:'Museo Sans Cyrl';-inkscape-font-specification:'Museo Sans Cyrl Bold';fill:#4d7c91;fill-opacity:1"
         id="path20031" />
      <path
         d="m 119.41338,483.17479 2.2825,0 0,-0.495 c 0,-1.22375 2.35125,-1.55375 2.35125,-3.80875 0,-1.77375 -1.66375,-2.695 -3.20375,-2.695 -1.32,0 -2.2825,0.55 -2.87375,1.14125 l 1.32,1.60875 c 0.3575,-0.31625 0.81125,-0.59125 1.30625,-0.59125 0.5225,0 0.97625,0.34375 0.97625,0.81125 0,1.155 -2.15875,1.485 -2.15875,3.34125 l 0,0.6875 z m 0.055,3.03875 2.1725,0 0,-2.0625 -2.1725,0 0,2.0625 z"
         style="font-style:normal;font-variant:normal;font-weight:bold;font-stretch:normal;font-size:13.75px;font-family:'Museo Sans Cyrl';-inkscape-font-specification:'Museo Sans Cyrl Bold';fill:#4d7c91;fill-opacity:1"
         id="path20033" />
      <path
         d="m 125.36391,488.96354 2.37875,0 0,-2.65375 c 0,-0.3575 -0.0275,-0.605 -0.0275,-0.605 l 0.0275,0 c 0.50875,0.44 1.14125,0.67375 1.80125,0.67375 1.88375,0 3.3,-1.4575 3.3,-3.69875 0,-2.2 -1.265,-3.7125 -3.19,-3.7125 -0.8525,0 -1.66375,0.33 -2.145,0.97625 l -0.0275,0 c 0,0 0.0275,-0.22 0.0275,-0.45375 l 0,-0.3575 -2.145,0 0,9.83125 z m 2.31,-6.2425 c 0,-1.22375 0.67375,-1.74625 1.38875,-1.74625 0.825,0 1.38875,0.6875 1.38875,1.74625 0,1.08625 -0.64625,1.69125 -1.38875,1.69125 -0.935,0 -1.38875,-0.83875 -1.38875,-1.69125 z"
         style="font-style:normal;font-variant:normal;font-weight:bold;font-stretch:normal;font-size:13.75px;font-family:'Museo Sans Cyrl';-inkscape-font-specification:'Museo Sans Cyrl Bold';fill:#4d7c91;fill-opacity:1"
         id="path20035" />
      <path
         d="m 134.06508,486.21354 2.37875,0 0,-3.19 c 0,-1.08625 0.50875,-1.8975 1.54,-1.8975 0.5225,0 0.78375,0.275 0.78375,0.935 l 0,4.1525 2.37875,0 0,-4.5925 c 0,-1.99375 -1.11375,-2.65375 -2.54375,-2.65375 -0.935,0 -1.76,0.42625 -2.15875,1.1275 l -0.0275,0 c 0,0 0.0275,-0.2475 0.0275,-0.605 l 0,-3.1075 -2.37875,0 0,9.83125 z"
         style="font-style:normal;font-variant:normal;font-weight:bold;font-stretch:normal;font-size:13.75px;font-family:'Museo Sans Cyrl';-inkscape-font-specification:'Museo Sans Cyrl Bold';fill:#4d7c91;fill-opacity:1"
         id="path20037" />
      <path
         d="m 142.68568,488.96354 2.37875,0 0,-2.65375 c 0,-0.3575 -0.0275,-0.605 -0.0275,-0.605 l 0.0275,0 c 0.50875,0.44 1.14125,0.67375 1.80125,0.67375 1.88375,0 3.3,-1.4575 3.3,-3.69875 0,-2.2 -1.265,-3.7125 -3.19,-3.7125 -0.8525,0 -1.66375,0.33 -2.145,0.97625 l -0.0275,0 c 0,0 0.0275,-0.22 0.0275,-0.45375 l 0,-0.3575 -2.145,0 0,9.83125 z m 2.31,-6.2425 c 0,-1.22375 0.67375,-1.74625 1.38875,-1.74625 0.825,0 1.38875,0.6875 1.38875,1.74625 0,1.08625 -0.64625,1.69125 -1.38875,1.69125 -0.935,0 -1.38875,-0.83875 -1.38875,-1.69125 z"
         style="font-style:normal;font-variant:normal;font-weight:bold;font-stretch:normal;font-size:13.75px;font-family:'Museo Sans Cyrl';-inkscape-font-specification:'Museo Sans Cyrl Bold';fill:#4d7c91;fill-opacity:1"
         id="path20039" />
      <path
         d="m 154.53561,481.27729 c 0,3.2175 2.31,5.10125 4.82625,5.10125 0.9625,0 1.99375,-0.33 2.585,-0.8525 l 0.0275,0 c 0,0 -0.0137,0.20625 -0.0137,0.4125 l 0,0.275 2.0075,0 0,-5.555 -3.52,0 0,2.04875 1.38875,0 0,0.75625 c -0.56375,0.44 -1.27875,0.715 -1.99375,0.715 -1.52625,0 -2.81875,-1.11375 -2.81875,-2.98375 0,-1.4575 0.83875,-2.7775 2.90125,-2.7775 0.83875,0 1.82875,0.39875 2.3925,0.9075 l 1.155,-1.80125 c -1.045,-0.92125 -2.4475,-1.30625 -3.78125,-1.30625 -2.9975,0 -5.15625,2.2 -5.15625,5.06 z"
         style="font-style:normal;font-variant:normal;font-weight:bold;font-stretch:normal;font-size:13.75px;font-family:'Museo Sans Cyrl';-inkscape-font-specification:'Museo Sans Cyrl Bold';fill:#4d3791;fill-opacity:1"
         id="path20041" />
      <path
         d="m 165.06037,482.66604 c 0,1.88375 1.36125,3.7125 3.89125,3.7125 1.08625,0 2.255,-0.37125 3.025,-1.03125 l -0.88,-1.66375 c -0.5775,0.385 -1.25125,0.715 -1.9525,0.715 -0.75625,0 -1.47125,-0.39875 -1.65,-1.265 l 4.46875,0 c 0.0275,-0.2475 0.055,-0.495 0.055,-0.7425 0,-1.96625 -1.1825,-3.42375 -3.2725,-3.42375 -2.2825,0 -3.685,1.6225 -3.685,3.69875 z m 2.48875,-0.89375 c 0.12375,-0.56375 0.45375,-1.05875 1.14125,-1.05875 0.605,0 0.97625,0.48125 0.97625,1.05875 l -2.1175,0 z"
         style="font-style:normal;font-variant:normal;font-weight:bold;font-stretch:normal;font-size:13.75px;font-family:'Museo Sans Cyrl';-inkscape-font-specification:'Museo Sans Cyrl Bold';fill:#4d3791;fill-opacity:1"
         id="path20043" />
      <path
         d="m 173.65971,483.60104 c 0,2.37875 2.18625,2.68125 3.31375,2.68125 0.275,0 0.4675,-0.0275 0.64625,-0.0412 l 0,-2.0625 c -0.15125,0.0138 -0.23375,0.0138 -0.31625,0.0138 -0.45375,0 -1.265,-0.11 -1.265,-0.9075 l 0,-2.1725 1.485,0 0,-1.85625 -1.485,0 0,-2.035 -2.31,0 0,2.035 -0.97625,0 0,1.85625 0.9075,0 0,2.48875 z"
         style="font-style:normal;font-variant:normal;font-weight:bold;font-stretch:normal;font-size:13.75px;font-family:'Museo Sans Cyrl';-inkscape-font-specification:'Museo Sans Cyrl Bold';fill:#4d3791;fill-opacity:1"
         id="path20045" />
      <path
         d="m 180.40559,486.21354 2.40625,0 0,-7.76875 2.98375,0 0,-2.0625 -8.37375,0 0,2.0625 2.98375,0 0,7.76875 z"
         style="font-style:normal;font-variant:normal;font-weight:bold;font-stretch:normal;font-size:13.75px;font-family:'Museo Sans Cyrl';-inkscape-font-specification:'Museo Sans Cyrl Bold';fill:#4d3791;fill-opacity:1"
         id="path20047" />
      <path
         d="m 186.70244,478.23854 2.32375,0 0,-1.85625 -2.32375,0 0,1.85625 z m -0.0275,7.975 2.37875,0 0,-7.08125 -2.37875,0 0,7.08125 z"
         style="font-style:normal;font-variant:normal;font-weight:bold;font-stretch:normal;font-size:13.75px;font-family:'Museo Sans Cyrl';-inkscape-font-specification:'Museo Sans Cyrl Bold';fill:#4d3791;fill-opacity:1"
         id="path20049" />
      <path
         d="m 191.06205,483.60104 c 0,2.37875 2.18625,2.68125 3.31375,2.68125 0.275,0 0.4675,-0.0275 0.64625,-0.0412 l 0,-2.0625 c -0.15125,0.0138 -0.23375,0.0138 -0.31625,0.0138 -0.45375,0 -1.265,-0.11 -1.265,-0.9075 l 0,-2.1725 1.485,0 0,-1.85625 -1.485,0 0,-2.035 -2.31,0 0,2.035 -0.97625,0 0,1.85625 0.9075,0 0,2.48875 z"
         style="font-style:normal;font-variant:normal;font-weight:bold;font-stretch:normal;font-size:13.75px;font-family:'Museo Sans Cyrl';-inkscape-font-specification:'Museo Sans Cyrl Bold';fill:#4d3791;fill-opacity:1"
         id="path20051" />
      <path
         d="m 196.27545,483.60104 c 0,2.37875 1.3475,2.68125 2.6125,2.68125 0.3025,0 0.55,-0.0275 0.715,-0.0412 l 0,-2.0625 c -0.11,0.0138 -0.22,0.0138 -0.28875,0.0138 -0.53625,0 -0.66,-0.23375 -0.66,-0.9075 l 0,-6.9025 -2.37875,0 0,7.21875 z"
         style="font-style:normal;font-variant:normal;font-weight:bold;font-stretch:normal;font-size:13.75px;font-family:'Museo Sans Cyrl';-inkscape-font-specification:'Museo Sans Cyrl Bold';fill:#4d3791;fill-opacity:1"
         id="path20053" />
      <path
         d="m 200.3216,482.66604 c 0,1.88375 1.36125,3.7125 3.89125,3.7125 1.08625,0 2.255,-0.37125 3.025,-1.03125 l -0.88,-1.66375 c -0.5775,0.385 -1.25125,0.715 -1.9525,0.715 -0.75625,0 -1.47125,-0.39875 -1.65,-1.265 l 4.46875,0 c 0.0275,-0.2475 0.055,-0.495 0.055,-0.7425 0,-1.96625 -1.1825,-3.42375 -3.2725,-3.42375 -2.2825,0 -3.685,1.6225 -3.685,3.69875 z m 2.48875,-0.89375 c 0.12375,-0.56375 0.45375,-1.05875 1.14125,-1.05875 0.605,0 0.97625,0.48125 0.97625,1.05875 l -2.1175,0 z"
         style="font-style:normal;font-variant:normal;font-weight:bold;font-stretch:normal;font-size:13.75px;font-family:'Museo Sans Cyrl';-inkscape-font-specification:'Museo Sans Cyrl Bold';fill:#4d3791;fill-opacity:1"
         id="path20055" />
      <path
         d="m 209.96594,487.51979 1.9525,0 c -1.0175,-1.93875 -1.55375,-4.015 -1.55375,-6.0775 0,-1.925 0.53625,-3.83625 1.55375,-5.54125 l -1.9525,0 c -1.08625,1.6775 -1.705,3.56125 -1.705,5.54125 0,2.31 0.64625,4.4 1.705,6.0775 z"
         style="font-style:normal;font-variant:normal;font-weight:bold;font-stretch:normal;font-size:13.75px;font-family:'Museo Sans Cyrl';-inkscape-font-specification:'Museo Sans Cyrl Bold';fill:#4d7c91;fill-opacity:1"
         id="path20057" />
      <path
         d="m 212.63387,487.51979 1.9525,0 c 1.05875,-1.6775 1.705,-3.7675 1.705,-6.0775 0,-1.98 -0.61875,-3.86375 -1.705,-5.54125 l -1.9525,0 c 1.0175,1.705 1.55375,3.61625 1.55375,5.54125 0,2.0625 -0.53625,4.13875 -1.55375,6.0775 z"
         style="font-style:normal;font-variant:normal;font-weight:bold;font-stretch:normal;font-size:13.75px;font-family:'Museo Sans Cyrl';-inkscape-font-specification:'Museo Sans Cyrl Bold';fill:#4d7c91;fill-opacity:1"
         id="path20059" />
      <path
         d="m 218.0518,481.38729 2.1725,0 0,-2.255 -2.1725,0 0,2.255 z m -0.9625,6.3525 1.76,0 1.41625,-3.80875 -2.2825,0 -0.89375,3.80875 z"
         style="font-style:normal;font-variant:normal;font-weight:bold;font-stretch:normal;font-size:13.75px;font-family:'Museo Sans Cyrl';-inkscape-font-specification:'Museo Sans Cyrl Bold';fill:#4d7c91;fill-opacity:1"
         id="path20061" />
      <path
         d="m 226.35186,483.17479 2.2825,0 0,-0.495 c 0,-1.22375 2.35125,-1.55375 2.35125,-3.80875 0,-1.77375 -1.66375,-2.695 -3.20375,-2.695 -1.32,0 -2.2825,0.55 -2.87375,1.14125 l 1.32,1.60875 c 0.3575,-0.31625 0.81125,-0.59125 1.30625,-0.59125 0.5225,0 0.97625,0.34375 0.97625,0.81125 0,1.155 -2.15875,1.485 -2.15875,3.34125 l 0,0.6875 z m 0.055,3.03875 2.1725,0 0,-2.0625 -2.1725,0 0,2.0625 z"
         style="font-style:normal;font-variant:normal;font-weight:bold;font-stretch:normal;font-size:13.75px;font-family:'Museo Sans Cyrl';-inkscape-font-specification:'Museo Sans Cyrl Bold';fill:#4d7c91;fill-opacity:1"
         id="path20063" />
      <path
         d="m 232.34363,486.06229 6.93,-3.06625 0,-1.47125 -6.93,-3.06625 0,1.99375 4.5375,1.80125 0,0.0275 -4.5375,1.7875 0,1.99375 z"
         style="font-style:normal;font-variant:normal;font-weight:bold;font-stretch:normal;font-size:13.75px;font-family:'Museo Sans Cyrl';-inkscape-font-specification:'Museo Sans Cyrl Bold';fill:#4d7c91;fill-opacity:1"
         id="path20065" />
      <path
         d="m 240.21701,482.99604 6.93,3.06625 0,-1.99375 -4.5375,-1.7875 0,-0.0275 4.5375,-1.80125 0,-1.99375 -6.93,3.06625 0,1.47125 z"
         style="font-style:normal;font-variant:normal;font-weight:bold;font-stretch:normal;font-size:13.75px;font-family:'Museo Sans Cyrl';-inkscape-font-specification:'Museo Sans Cyrl Bold';fill:#4d7c91;fill-opacity:1"
         id="path20067" />
      <path
         d="m 248.35164,486.79104 1.98,0 3.52,-10.89 -1.98,0 -3.52,10.89 z"
         style="font-style:normal;font-variant:normal;font-weight:bold;font-stretch:normal;font-size:13.75px;font-family:'Museo Sans Cyrl';-inkscape-font-specification:'Museo Sans Cyrl Bold';fill:#4d7c91;fill-opacity:1"
         id="path20069" />
      <path
         d="m 255.40775,483.60104 c 0,2.37875 2.18625,2.68125 3.31375,2.68125 0.275,0 0.4675,-0.0275 0.64625,-0.0412 l 0,-2.0625 c -0.15125,0.0138 -0.23375,0.0138 -0.31625,0.0138 -0.45375,0 -1.265,-0.11 -1.265,-0.9075 l 0,-2.1725 1.485,0 0,-1.85625 -1.485,0 0,-2.035 -2.31,0 0,2.035 -0.97625,0 0,1.85625 0.9075,0 0,2.48875 z"
         style="font-style:normal;font-variant:normal;font-weight:bold;font-stretch:normal;font-size:13.75px;font-family:'Museo Sans Cyrl';-inkscape-font-specification:'Museo Sans Cyrl Bold';fill:#ff5555;fill-opacity:1"
         id="path20071" />
      <path
         d="m 260.6624,478.23854 2.32375,0 0,-1.85625 -2.32375,0 0,1.85625 z m -0.0275,7.975 2.37875,0 0,-7.08125 -2.37875,0 0,7.08125 z"
         style="font-style:normal;font-variant:normal;font-weight:bold;font-stretch:normal;font-size:13.75px;font-family:'Museo Sans Cyrl';-inkscape-font-specification:'Museo Sans Cyrl Bold';fill:#ff5555;fill-opacity:1"
         id="path20073" />
      <path
         d="m 265.02201,483.60104 c 0,2.37875 2.18625,2.68125 3.31375,2.68125 0.275,0 0.4675,-0.0275 0.64625,-0.0412 l 0,-2.0625 c -0.15125,0.0138 -0.23375,0.0138 -0.31625,0.0138 -0.45375,0 -1.265,-0.11 -1.265,-0.9075 l 0,-2.1725 1.485,0 0,-1.85625 -1.485,0 0,-2.035 -2.31,0 0,2.035 -0.97625,0 0,1.85625 0.9075,0 0,2.48875 z"
         style="font-style:normal;font-variant:normal;font-weight:bold;font-stretch:normal;font-size:13.75px;font-family:'Museo Sans Cyrl';-inkscape-font-specification:'Museo Sans Cyrl Bold';fill:#ff5555;fill-opacity:1"
         id="path20075" />
      <path
         d="m 270.23541,483.60104 c 0,2.37875 1.3475,2.68125 2.6125,2.68125 0.3025,0 0.55,-0.0275 0.715,-0.0412 l 0,-2.0625 c -0.11,0.0138 -0.22,0.0138 -0.28875,0.0138 -0.53625,0 -0.66,-0.23375 -0.66,-0.9075 l 0,-6.9025 -2.37875,0 0,7.21875 z"
         style="font-style:normal;font-variant:normal;font-weight:bold;font-stretch:normal;font-size:13.75px;font-family:'Museo Sans Cyrl';-inkscape-font-specification:'Museo Sans Cyrl Bold';fill:#ff5555;fill-opacity:1"
         id="path20077" />
      <path
         d="m 274.28156,482.66604 c 0,1.88375 1.36125,3.7125 3.89125,3.7125 1.08625,0 2.255,-0.37125 3.025,-1.03125 l -0.88,-1.66375 c -0.5775,0.385 -1.25125,0.715 -1.9525,0.715 -0.75625,0 -1.47125,-0.39875 -1.65,-1.265 l 4.46875,0 c 0.0275,-0.2475 0.055,-0.495 0.055,-0.7425 0,-1.96625 -1.1825,-3.42375 -3.2725,-3.42375 -2.2825,0 -3.685,1.6225 -3.685,3.69875 z m 2.48875,-0.89375 c 0.12375,-0.56375 0.45375,-1.05875 1.14125,-1.05875 0.605,0 0.97625,0.48125 0.97625,1.05875 l -2.1175,0 z"
         style="font-style:normal;font-variant:normal;font-weight:bold;font-stretch:normal;font-size:13.75px;font-family:'Museo Sans Cyrl';-inkscape-font-specification:'Museo Sans Cyrl Bold';fill:#ff5555;fill-opacity:1"
         id="path20079" />
      <path
         d="m 282.50965,486.06229 6.93,-3.06625 0,-1.47125 -6.93,-3.06625 0,1.99375 4.5375,1.80125 0,0.0275 -4.5375,1.7875 0,1.99375 z"
         style="font-style:normal;font-variant:normal;font-weight:bold;font-stretch:normal;font-size:13.75px;font-family:'Museo Sans Cyrl';-inkscape-font-specification:'Museo Sans Cyrl Bold';fill:#4d7c91;fill-opacity:1"
         id="path20081" />
      <path
         d="m 65.0925,500.18354 6.93,3.06625 0,-1.99375 -4.5375,-1.7875 0,-0.0275 4.5375,-1.80125 0,-1.99375 -6.93,3.06625 0,1.47125 z"
         style="font-style:normal;font-variant:normal;font-weight:bold;font-stretch:normal;font-size:13.75px;font-family:'Museo Sans Cyrl';-inkscape-font-specification:'Museo Sans Cyrl Bold';fill:#4d7c91;fill-opacity:1"
         id="path20083" />
      <path
         d="m 73.653379,500.78854 c 0,2.37875 1.3475,2.68125 2.6125,2.68125 0.3025,0 0.55,-0.0275 0.715,-0.0412 l 0,-2.0625 c -0.11,0.0138 -0.22,0.0138 -0.28875,0.0138 -0.53625,0 -0.66,-0.23375 -0.66,-0.9075 l 0,-6.9025 -2.37875,0 0,7.21875 z"
         style="font-style:normal;font-variant:normal;font-weight:bold;font-stretch:normal;font-size:13.75px;font-family:'Museo Sans Cyrl';-inkscape-font-specification:'Museo Sans Cyrl Bold';fill:#ff5555;fill-opacity:1"
         id="path20085" />
      <path
         d="m 78.125781,495.42604 2.32375,0 0,-1.85625 -2.32375,0 0,1.85625 z m -0.0275,7.975 2.37875,0 0,-7.08125 -2.37875,0 0,7.08125 z"
         style="font-style:normal;font-variant:normal;font-weight:bold;font-stretch:normal;font-size:13.75px;font-family:'Museo Sans Cyrl';-inkscape-font-specification:'Museo Sans Cyrl Bold';fill:#ff5555;fill-opacity:1"
         id="path20087" />
      <path
         d="m 82.072891,503.40104 2.37875,0 0,-3.20375 c 0,-1.00375 0.48125,-1.88375 1.54,-1.88375 0.5225,0 0.78375,0.275 0.78375,0.935 l 0,4.1525 2.37875,0 0,-4.5925 c 0,-1.99375 -1.11375,-2.65375 -2.54375,-2.65375 -1.25125,0 -1.925,0.67375 -2.255,1.22375 l -0.0275,0 c 0,0 0.0275,-0.20625 0.0275,-0.44 l 0,-0.61875 -2.2825,0 0,7.08125 z"
         style="font-style:normal;font-variant:normal;font-weight:bold;font-stretch:normal;font-size:13.75px;font-family:'Museo Sans Cyrl';-inkscape-font-specification:'Museo Sans Cyrl Bold';fill:#ff5555;fill-opacity:1"
         id="path20089" />
      <path
         d="m 90.693496,503.40104 2.37875,0 0,-2.75 0.7425,0 1.49875,2.75 2.70875,0 -2.365,-3.83625 0,-0.0275 2.07625,-3.2175 -2.585,0 -1.4025,2.3375 -0.67375,0 0,-5.0875 -2.37875,0 0,9.83125 z"
         style="font-style:normal;font-variant:normal;font-weight:bold;font-stretch:normal;font-size:13.75px;font-family:'Museo Sans Cyrl';-inkscape-font-specification:'Museo Sans Cyrl Bold';fill:#ff5555;fill-opacity:1"
         id="path20091" />
      <path
         d="m 102.2682,503.40104 2.37875,0 0,-2.75 c 0,-1.2925 0.6325,-2.13125 1.9525,-2.13125 0.165,0 0.39875,0.0138 0.48125,0.0412 l 0,-2.3375 c -0.0825,-0.0138 -0.17875,-0.0275 -0.275,-0.0275 -1.05875,0 -1.9525,0.7975 -2.255,1.76 l -0.0275,0 c 0,0 0.0275,-0.20625 0.0275,-0.44 l 0,-1.19625 -2.2825,0 0,7.08125 z"
         style="font-style:normal;font-variant:normal;font-weight:bold;font-stretch:normal;font-size:13.75px;font-family:'Museo Sans Cyrl';-inkscape-font-specification:'Museo Sans Cyrl Bold';fill:#fcbb3f;fill-opacity:1"
         id="path20093" />
      <path
         d="m 107.72395,499.85354 c 0,1.88375 1.36125,3.7125 3.89125,3.7125 1.08625,0 2.255,-0.37125 3.025,-1.03125 l -0.88,-1.66375 c -0.5775,0.385 -1.25125,0.715 -1.9525,0.715 -0.75625,0 -1.47125,-0.39875 -1.65,-1.265 l 4.46875,0 c 0.0275,-0.2475 0.055,-0.495 0.055,-0.7425 0,-1.96625 -1.1825,-3.42375 -3.2725,-3.42375 -2.2825,0 -3.685,1.6225 -3.685,3.69875 z m 2.48875,-0.89375 c 0.12375,-0.56375 0.45375,-1.05875 1.14125,-1.05875 0.605,0 0.97625,0.48125 0.97625,1.05875 l -2.1175,0 z"
         style="font-style:normal;font-variant:normal;font-weight:bold;font-stretch:normal;font-size:13.75px;font-family:'Museo Sans Cyrl';-inkscape-font-specification:'Museo Sans Cyrl Bold';fill:#fcbb3f;fill-opacity:1"
         id="path20095" />
      <path
         d="m 115.89703,500.78854 c 0,2.37875 1.3475,2.68125 2.6125,2.68125 0.3025,0 0.55,-0.0275 0.715,-0.0412 l 0,-2.0625 c -0.11,0.0138 -0.22,0.0138 -0.28875,0.0138 -0.53625,0 -0.66,-0.23375 -0.66,-0.9075 l 0,-6.9025 -2.37875,0 0,7.21875 z"
         style="font-style:normal;font-variant:normal;font-weight:bold;font-stretch:normal;font-size:13.75px;font-family:'Museo Sans Cyrl';-inkscape-font-specification:'Museo Sans Cyrl Bold';fill:#fcbb3f;fill-opacity:1"
         id="path20097" />
      <path
         d="m 120.19068,498.76729 6.9575,0 0,-1.7875 -6.9575,0 0,1.7875 z m 0,3.1625 6.9575,0 0,-1.7875 -6.9575,0 0,1.7875 z"
         style="font-style:normal;font-variant:normal;font-weight:bold;font-stretch:normal;font-size:13.75px;font-family:'Museo Sans Cyrl';-inkscape-font-specification:'Museo Sans Cyrl Bold';fill:#4d7c91;fill-opacity:1"
         id="path20099" />
      <path
         d="m 131.26781,496.66354 1.6775,0 0,-3.3 -1.6775,0 0,3.3 z m -2.62625,0 1.6775,0 0,-3.3 -1.6775,0 0,3.3 z"
         style="font-style:normal;font-variant:normal;font-weight:bold;font-stretch:normal;font-size:13.75px;font-family:'Museo Sans Cyrl';-inkscape-font-specification:'Museo Sans Cyrl Bold';fill:#4d7c91;fill-opacity:1"
         id="path20101" />
      <path
         d="m 133.95852,502.52104 c 0.78375,0.70125 1.87,1.045 2.8875,1.045 1.815,0 2.915,-1.00375 2.915,-2.32375 0,-2.29625 -3.31375,-2.1175 -3.31375,-2.86 0,-0.1925 0.15125,-0.34375 0.66,-0.34375 0.605,0 1.375,0.2475 1.7875,0.5775 l 0.81125,-1.65 c -0.715,-0.5775 -1.6225,-0.81125 -2.53,-0.81125 -1.63625,0 -2.9425,0.78375 -2.9425,2.24125 0,2.32375 3.31375,2.15875 3.31375,2.915 0,0.22 -0.165,0.37125 -0.64625,0.37125 -0.67375,0 -1.4025,-0.275 -1.925,-0.715 l -1.0175,1.55375 z"
         style="font-style:normal;font-variant:normal;font-weight:bold;font-stretch:normal;font-size:13.75px;font-family:'Museo Sans Cyrl';-inkscape-font-specification:'Museo Sans Cyrl Bold';fill:#34c749;fill-opacity:1"
         id="path20103" />
      <path
         d="m 141.37943,500.78854 c 0,2.37875 2.18625,2.68125 3.31375,2.68125 0.275,0 0.4675,-0.0275 0.64625,-0.0412 l 0,-2.0625 c -0.15125,0.0138 -0.23375,0.0138 -0.31625,0.0138 -0.45375,0 -1.265,-0.11 -1.265,-0.9075 l 0,-2.1725 1.485,0 0,-1.85625 -1.485,0 0,-2.035 -2.31,0 0,2.035 -0.97625,0 0,1.85625 0.9075,0 0,2.48875 z"
         style="font-style:normal;font-variant:normal;font-weight:bold;font-stretch:normal;font-size:13.75px;font-family:'Museo Sans Cyrl';-inkscape-font-specification:'Museo Sans Cyrl Bold';fill:#34c749;fill-opacity:1"
         id="path20105" />
      <path
         d="m 146.67533,504.04729 -0.75625,1.74625 c 0,0 0.715,0.495 1.65,0.495 1.1275,0 2.365,-0.55 2.95625,-2.13125 l 2.90125,-7.8375 -2.59875,0 -0.89375,3.3 c -0.0962,0.385 -0.23375,1.05875 -0.23375,1.05875 l -0.0275,0 c 0,0 -0.1375,-0.715 -0.26125,-1.1 l -1.045,-3.25875 -2.695,0 3.01125,6.94375 -0.1375,0.33 c -0.2475,0.605 -0.75625,0.715 -1.14125,0.715 -0.34375,0 -0.72875,-0.26125 -0.72875,-0.26125 z"
         style="font-style:normal;font-variant:normal;font-weight:bold;font-stretch:normal;font-size:13.75px;font-family:'Museo Sans Cyrl';-inkscape-font-specification:'Museo Sans Cyrl Bold';fill:#34c749;fill-opacity:1"
         id="path20107" />
      <path
         d="m 154.30035,500.78854 c 0,2.37875 1.3475,2.68125 2.6125,2.68125 0.3025,0 0.55,-0.0275 0.715,-0.0412 l 0,-2.0625 c -0.11,0.0138 -0.22,0.0138 -0.28875,0.0138 -0.53625,0 -0.66,-0.23375 -0.66,-0.9075 l 0,-6.9025 -2.37875,0 0,7.21875 z"
         style="font-style:normal;font-variant:normal;font-weight:bold;font-stretch:normal;font-size:13.75px;font-family:'Museo Sans Cyrl';-inkscape-font-specification:'Museo Sans Cyrl Bold';fill:#34c749;fill-opacity:1"
         id="path20109" />
      <path
         d="m 158.3465,499.85354 c 0,1.88375 1.36125,3.7125 3.89125,3.7125 1.08625,0 2.255,-0.37125 3.025,-1.03125 l -0.88,-1.66375 c -0.5775,0.385 -1.25125,0.715 -1.9525,0.715 -0.75625,0 -1.47125,-0.39875 -1.65,-1.265 l 4.46875,0 c 0.0275,-0.2475 0.055,-0.495 0.055,-0.7425 0,-1.96625 -1.1825,-3.42375 -3.2725,-3.42375 -2.2825,0 -3.685,1.6225 -3.685,3.69875 z m 2.48875,-0.89375 c 0.12375,-0.56375 0.45375,-1.05875 1.14125,-1.05875 0.605,0 0.97625,0.48125 0.97625,1.05875 l -2.1175,0 z"
         style="font-style:normal;font-variant:normal;font-weight:bold;font-stretch:normal;font-size:13.75px;font-family:'Museo Sans Cyrl';-inkscape-font-specification:'Museo Sans Cyrl Bold';fill:#34c749;fill-opacity:1"
         id="path20111" />
      <path
         d="m 165.99709,502.52104 c 0.78375,0.70125 1.87,1.045 2.8875,1.045 1.815,0 2.915,-1.00375 2.915,-2.32375 0,-2.29625 -3.31375,-2.1175 -3.31375,-2.86 0,-0.1925 0.15125,-0.34375 0.66,-0.34375 0.605,0 1.375,0.2475 1.7875,0.5775 l 0.81125,-1.65 c -0.715,-0.5775 -1.6225,-0.81125 -2.53,-0.81125 -1.63625,0 -2.9425,0.78375 -2.9425,2.24125 0,2.32375 3.31375,2.15875 3.31375,2.915 0,0.22 -0.165,0.37125 -0.64625,0.37125 -0.67375,0 -1.4025,-0.275 -1.925,-0.715 l -1.0175,1.55375 z"
         style="font-style:normal;font-variant:normal;font-weight:bold;font-stretch:normal;font-size:13.75px;font-family:'Museo Sans Cyrl';-inkscape-font-specification:'Museo Sans Cyrl Bold';fill:#34c749;fill-opacity:1"
         id="path20113" />
      <path
         d="m 173.00551,503.40104 2.37875,0 0,-3.19 c 0,-1.08625 0.50875,-1.8975 1.54,-1.8975 0.5225,0 0.78375,0.275 0.78375,0.935 l 0,4.1525 2.37875,0 0,-4.5925 c 0,-1.99375 -1.11375,-2.65375 -2.54375,-2.65375 -0.935,0 -1.76,0.42625 -2.15875,1.1275 l -0.0275,0 c 0,0 0.0275,-0.2475 0.0275,-0.605 l 0,-3.1075 -2.37875,0 0,9.83125 z"
         style="font-style:normal;font-variant:normal;font-weight:bold;font-stretch:normal;font-size:13.75px;font-family:'Museo Sans Cyrl';-inkscape-font-specification:'Museo Sans Cyrl Bold';fill:#34c749;fill-opacity:1"
         id="path20115" />
      <path
         d="m 181.22736,499.85354 c 0,1.88375 1.36125,3.7125 3.89125,3.7125 1.08625,0 2.255,-0.37125 3.025,-1.03125 l -0.88,-1.66375 c -0.5775,0.385 -1.25125,0.715 -1.9525,0.715 -0.75625,0 -1.47125,-0.39875 -1.65,-1.265 l 4.46875,0 c 0.0275,-0.2475 0.055,-0.495 0.055,-0.7425 0,-1.96625 -1.1825,-3.42375 -3.2725,-3.42375 -2.2825,0 -3.685,1.6225 -3.685,3.69875 z m 2.48875,-0.89375 c 0.12375,-0.56375 0.45375,-1.05875 1.14125,-1.05875 0.605,0 0.97625,0.48125 0.97625,1.05875 l -2.1175,0 z"
         style="font-style:normal;font-variant:normal;font-weight:bold;font-stretch:normal;font-size:13.75px;font-family:'Museo Sans Cyrl';-inkscape-font-specification:'Museo Sans Cyrl Bold';fill:#34c749;fill-opacity:1"
         id="path20117" />
      <path
         d="m 189.01545,499.85354 c 0,1.88375 1.36125,3.7125 3.89125,3.7125 1.08625,0 2.255,-0.37125 3.025,-1.03125 l -0.88,-1.66375 c -0.5775,0.385 -1.25125,0.715 -1.9525,0.715 -0.75625,0 -1.47125,-0.39875 -1.65,-1.265 l 4.46875,0 c 0.0275,-0.2475 0.055,-0.495 0.055,-0.7425 0,-1.96625 -1.1825,-3.42375 -3.2725,-3.42375 -2.2825,0 -3.685,1.6225 -3.685,3.69875 z m 2.48875,-0.89375 c 0.12375,-0.56375 0.45375,-1.05875 1.14125,-1.05875 0.605,0 0.97625,0.48125 0.97625,1.05875 l -2.1175,0 z"
         style="font-style:normal;font-variant:normal;font-weight:bold;font-stretch:normal;font-size:13.75px;font-family:'Museo Sans Cyrl';-inkscape-font-specification:'Museo Sans Cyrl Bold';fill:#34c749;fill-opacity:1"
         id="path20119" />
      <path
         d="m 197.61479,500.78854 c 0,2.37875 2.18625,2.68125 3.31375,2.68125 0.275,0 0.4675,-0.0275 0.64625,-0.0412 l 0,-2.0625 c -0.15125,0.0138 -0.23375,0.0138 -0.31625,0.0138 -0.45375,0 -1.265,-0.11 -1.265,-0.9075 l 0,-2.1725 1.485,0 0,-1.85625 -1.485,0 0,-2.035 -2.31,0 0,2.035 -0.97625,0 0,1.85625 0.9075,0 0,2.48875 z"
         style="font-style:normal;font-variant:normal;font-weight:bold;font-stretch:normal;font-size:13.75px;font-family:'Museo Sans Cyrl';-inkscape-font-specification:'Museo Sans Cyrl Bold';fill:#34c749;fill-opacity:1"
         id="path20121" />
      <path
         d="m 205.52318,496.66354 1.6775,0 0,-3.3 -1.6775,0 0,3.3 z m -2.62625,0 1.6775,0 0,-3.3 -1.6775,0 0,3.3 z"
         style="font-style:normal;font-variant:normal;font-weight:bold;font-stretch:normal;font-size:13.75px;font-family:'Museo Sans Cyrl';-inkscape-font-specification:'Museo Sans Cyrl Bold';fill:#4d7c91;fill-opacity:1"
         id="path20123" />
      <path
         d="m 212.22416,500.78854 c 0,2.37875 2.18625,2.68125 3.31375,2.68125 0.275,0 0.4675,-0.0275 0.64625,-0.0412 l 0,-2.0625 c -0.15125,0.0138 -0.23375,0.0138 -0.31625,0.0138 -0.45375,0 -1.265,-0.11 -1.265,-0.9075 l 0,-2.1725 1.485,0 0,-1.85625 -1.485,0 0,-2.035 -2.31,0 0,2.035 -0.97625,0 0,1.85625 0.9075,0 0,2.48875 z"
         style="font-style:normal;font-variant:normal;font-weight:bold;font-stretch:normal;font-size:13.75px;font-family:'Museo Sans Cyrl';-inkscape-font-specification:'Museo Sans Cyrl Bold';fill:#4d7c91;fill-opacity:1"
         id="path20125" />
      <path
         d="m 217.52006,504.04729 -0.75625,1.74625 c 0,0 0.715,0.495 1.65,0.495 1.1275,0 2.365,-0.55 2.95625,-2.13125 l 2.90125,-7.8375 -2.59875,0 -0.89375,3.3 c -0.0962,0.385 -0.23375,1.05875 -0.23375,1.05875 l -0.0275,0 c 0,0 -0.1375,-0.715 -0.26125,-1.1 l -1.045,-3.25875 -2.695,0 3.01125,6.94375 -0.1375,0.33 c -0.2475,0.605 -0.75625,0.715 -1.14125,0.715 -0.34375,0 -0.72875,-0.26125 -0.72875,-0.26125 z"
         style="font-style:normal;font-variant:normal;font-weight:bold;font-stretch:normal;font-size:13.75px;font-family:'Museo Sans Cyrl';-inkscape-font-specification:'Museo Sans Cyrl Bold';fill:#4d7c91;fill-opacity:1"
         id="path20127" />
      <path
         d="m 225.15883,506.15104 2.37875,0 0,-2.65375 c 0,-0.3575 -0.0275,-0.605 -0.0275,-0.605 l 0.0275,0 c 0.50875,0.44 1.14125,0.67375 1.80125,0.67375 1.88375,0 3.3,-1.4575 3.3,-3.69875 0,-2.2 -1.265,-3.7125 -3.19,-3.7125 -0.8525,0 -1.66375,0.33 -2.145,0.97625 l -0.0275,0 c 0,0 0.0275,-0.22 0.0275,-0.45375 l 0,-0.3575 -2.145,0 0,9.83125 z m 2.31,-6.2425 c 0,-1.22375 0.67375,-1.74625 1.38875,-1.74625 0.825,0 1.38875,0.6875 1.38875,1.74625 0,1.08625 -0.64625,1.69125 -1.38875,1.69125 -0.935,0 -1.38875,-0.83875 -1.38875,-1.69125 z"
         style="font-style:normal;font-variant:normal;font-weight:bold;font-stretch:normal;font-size:13.75px;font-family:'Museo Sans Cyrl';-inkscape-font-specification:'Museo Sans Cyrl Bold';fill:#4d7c91;fill-opacity:1"
         id="path20129" />
      <path
         d="m 233.46125,499.85354 c 0,1.88375 1.36125,3.7125 3.89125,3.7125 1.08625,0 2.255,-0.37125 3.025,-1.03125 l -0.88,-1.66375 c -0.5775,0.385 -1.25125,0.715 -1.9525,0.715 -0.75625,0 -1.47125,-0.39875 -1.65,-1.265 l 4.46875,0 c 0.0275,-0.2475 0.055,-0.495 0.055,-0.7425 0,-1.96625 -1.1825,-3.42375 -3.2725,-3.42375 -2.2825,0 -3.685,1.6225 -3.685,3.69875 z m 2.48875,-0.89375 c 0.12375,-0.56375 0.45375,-1.05875 1.14125,-1.05875 0.605,0 0.97625,0.48125 0.97625,1.05875 l -2.1175,0 z"
         style="font-style:normal;font-variant:normal;font-weight:bold;font-stretch:normal;font-size:13.75px;font-family:'Museo Sans Cyrl';-inkscape-font-specification:'Museo Sans Cyrl Bold';fill:#4d7c91;fill-opacity:1"
         id="path20131" />
      <path
         d="m 241.49684,498.76729 6.9575,0 0,-1.7875 -6.9575,0 0,1.7875 z m 0,3.1625 6.9575,0 0,-1.7875 -6.9575,0 0,1.7875 z"
         style="font-style:normal;font-variant:normal;font-weight:bold;font-stretch:normal;font-size:13.75px;font-family:'Museo Sans Cyrl';-inkscape-font-specification:'Museo Sans Cyrl Bold';fill:#4d7c91;fill-opacity:1"
         id="path20133" />
      <path
         d="m 252.57396,496.66354 1.6775,0 0,-3.3 -1.6775,0 0,3.3 z m -2.62625,0 1.6775,0 0,-3.3 -1.6775,0 0,3.3 z"
         style="font-style:normal;font-variant:normal;font-weight:bold;font-stretch:normal;font-size:13.75px;font-family:'Museo Sans Cyrl';-inkscape-font-specification:'Museo Sans Cyrl Bold';fill:#4d7c91;fill-opacity:1"
         id="path20135" />
      <path
         d="m 256.32084,500.78854 c 0,2.37875 2.18625,2.68125 3.31375,2.68125 0.275,0 0.4675,-0.0275 0.64625,-0.0412 l 0,-2.0625 c -0.15125,0.0138 -0.23375,0.0138 -0.31625,0.0138 -0.45375,0 -1.265,-0.11 -1.265,-0.9075 l 0,-2.1725 1.485,0 0,-1.85625 -1.485,0 0,-2.035 -2.31,0 0,2.035 -0.97625,0 0,1.85625 0.9075,0 0,2.48875 z"
         style="font-style:normal;font-variant:normal;font-weight:bold;font-stretch:normal;font-size:13.75px;font-family:'Museo Sans Cyrl';-inkscape-font-specification:'Museo Sans Cyrl Bold';fill:#34c749;fill-opacity:1"
         id="path20137" />
      <path
         d="m 261.14924,499.85354 c 0,1.88375 1.36125,3.7125 3.89125,3.7125 1.08625,0 2.255,-0.37125 3.025,-1.03125 l -0.88,-1.66375 c -0.5775,0.385 -1.25125,0.715 -1.9525,0.715 -0.75625,0 -1.47125,-0.39875 -1.65,-1.265 l 4.46875,0 c 0.0275,-0.2475 0.055,-0.495 0.055,-0.7425 0,-1.96625 -1.1825,-3.42375 -3.2725,-3.42375 -2.2825,0 -3.685,1.6225 -3.685,3.69875 z m 2.48875,-0.89375 c 0.12375,-0.56375 0.45375,-1.05875 1.14125,-1.05875 0.605,0 0.97625,0.48125 0.97625,1.05875 l -2.1175,0 z"
         style="font-style:normal;font-variant:normal;font-weight:bold;font-stretch:normal;font-size:13.75px;font-family:'Museo Sans Cyrl';-inkscape-font-specification:'Museo Sans Cyrl Bold';fill:#34c749;fill-opacity:1"
         id="path20139" />
      <path
         d="m 268.60926,503.40104 2.6125,0 0.83875,-1.595 c 0.0687,-0.12375 0.165,-0.3575 0.165,-0.3575 l 0.0275,0 c 0,0 0.0962,0.23375 0.165,0.3575 l 0.8525,1.595 2.6125,0 -2.2275,-3.50625 2.26875,-3.575 -2.68125,0 -0.77,1.58125 c -0.0825,0.17875 -0.22,0.4675 -0.22,0.4675 l -0.0275,0 c 0,0 -0.12375,-0.28875 -0.22,-0.4675 l -0.77,-1.58125 -2.68125,0 2.2825,3.575 -2.2275,3.50625 z"
         style="font-style:normal;font-variant:normal;font-weight:bold;font-stretch:normal;font-size:13.75px;font-family:'Museo Sans Cyrl';-inkscape-font-specification:'Museo Sans Cyrl Bold';fill:#34c749;fill-opacity:1"
         id="path20141" />
      <path
         d="m 277.24125,500.78854 c 0,2.37875 2.18625,2.68125 3.31375,2.68125 0.275,0 0.4675,-0.0275 0.64625,-0.0412 l 0,-2.0625 c -0.15125,0.0138 -0.23375,0.0138 -0.31625,0.0138 -0.45375,0 -1.265,-0.11 -1.265,-0.9075 l 0,-2.1725 1.485,0 0,-1.85625 -1.485,0 0,-2.035 -2.31,0 0,2.035 -0.97625,0 0,1.85625 0.9075,0 0,2.48875 z"
         style="font-style:normal;font-variant:normal;font-weight:bold;font-stretch:normal;font-size:13.75px;font-family:'Museo Sans Cyrl';-inkscape-font-specification:'Museo Sans Cyrl Bold';fill:#34c749;fill-opacity:1"
         id="path20143" />
      <path
         d="m 282.0284,503.97854 1.98,0 3.52,-10.89 -1.98,0 -3.52,10.89 z"
         style="font-style:normal;font-variant:normal;font-weight:bold;font-stretch:normal;font-size:13.75px;font-family:'Museo Sans Cyrl';-inkscape-font-specification:'Museo Sans Cyrl Bold';fill:#34c749;fill-opacity:1"
         id="path20145" />
      <path
         d="m 287.84357,499.85354 c 0,1.9525 1.41625,3.7125 3.94625,3.7125 1.1825,0 2.3375,-0.45375 3.03875,-1.16875 l -0.86625,-1.66375 c -0.50875,0.44 -1.25125,0.8525 -1.93875,0.8525 -1.19625,0 -1.77375,-0.92125 -1.77375,-1.76 0,-0.83875 0.56375,-1.69125 1.69125,-1.69125 0.61875,0 1.25125,0.28875 1.66375,0.6875 l 1.00375,-1.595 c -0.70125,-0.75625 -1.82875,-1.0725 -2.81875,-1.0725 -2.54375,0 -3.94625,1.80125 -3.94625,3.69875 z"
         style="font-style:normal;font-variant:normal;font-weight:bold;font-stretch:normal;font-size:13.75px;font-family:'Museo Sans Cyrl';-inkscape-font-specification:'Museo Sans Cyrl Bold';fill:#34c749;fill-opacity:1"
         id="path20147" />
      <path
         d="m 295.30617,502.52104 c 0.78375,0.70125 1.87,1.045 2.8875,1.045 1.815,0 2.915,-1.00375 2.915,-2.32375 0,-2.29625 -3.31375,-2.1175 -3.31375,-2.86 0,-0.1925 0.15125,-0.34375 0.66,-0.34375 0.605,0 1.375,0.2475 1.7875,0.5775 l 0.81125,-1.65 c -0.715,-0.5775 -1.6225,-0.81125 -2.53,-0.81125 -1.63625,0 -2.9425,0.78375 -2.9425,2.24125 0,2.32375 3.31375,2.15875 3.31375,2.915 0,0.22 -0.165,0.37125 -0.64625,0.37125 -0.67375,0 -1.4025,-0.275 -1.925,-0.715 l -1.0175,1.55375 z"
         style="font-style:normal;font-variant:normal;font-weight:bold;font-stretch:normal;font-size:13.75px;font-family:'Museo Sans Cyrl';-inkscape-font-specification:'Museo Sans Cyrl Bold';fill:#34c749;fill-opacity:1"
         id="path20149" />
      <path
         d="m 301.77834,502.52104 c 0.78375,0.70125 1.87,1.045 2.8875,1.045 1.815,0 2.915,-1.00375 2.915,-2.32375 0,-2.29625 -3.31375,-2.1175 -3.31375,-2.86 0,-0.1925 0.15125,-0.34375 0.66,-0.34375 0.605,0 1.375,0.2475 1.7875,0.5775 l 0.81125,-1.65 c -0.715,-0.5775 -1.6225,-0.81125 -2.53,-0.81125 -1.63625,0 -2.9425,0.78375 -2.9425,2.24125 0,2.32375 3.31375,2.15875 3.31375,2.915 0,0.22 -0.165,0.37125 -0.64625,0.37125 -0.67375,0 -1.4025,-0.275 -1.925,-0.715 l -1.0175,1.55375 z"
         style="font-style:normal;font-variant:normal;font-weight:bold;font-stretch:normal;font-size:13.75px;font-family:'Museo Sans Cyrl';-inkscape-font-specification:'Museo Sans Cyrl Bold';fill:#34c749;fill-opacity:1"
         id="path20151" />
      <path
         d="m 311.46801,496.66354 1.6775,0 0,-3.3 -1.6775,0 0,3.3 z m -2.62625,0 1.6775,0 0,-3.3 -1.6775,0 0,3.3 z"
         style="font-style:normal;font-variant:normal;font-weight:bold;font-stretch:normal;font-size:13.75px;font-family:'Museo Sans Cyrl';-inkscape-font-specification:'Museo Sans Cyrl Bold';fill:#4d7c91;fill-opacity:1"
         id="path20153" />
      <path
         d="m 318.02504,503.40104 2.37875,0 0,-3.19 c 0,-1.08625 0.50875,-1.8975 1.54,-1.8975 0.5225,0 0.78375,0.275 0.78375,0.935 l 0,4.1525 2.37875,0 0,-4.5925 c 0,-1.99375 -1.11375,-2.65375 -2.54375,-2.65375 -0.935,0 -1.76,0.42625 -2.15875,1.1275 l -0.0275,0 c 0,0 0.0275,-0.2475 0.0275,-0.605 l 0,-3.1075 -2.37875,0 0,9.83125 z"
         style="font-style:normal;font-variant:normal;font-weight:bold;font-stretch:normal;font-size:13.75px;font-family:'Museo Sans Cyrl';-inkscape-font-specification:'Museo Sans Cyrl Bold';fill:#fcbb3f;fill-opacity:1"
         id="path20155" />
      <path
         d="m 326.64564,503.40104 2.37875,0 0,-2.75 c 0,-1.2925 0.6325,-2.13125 1.9525,-2.13125 0.165,0 0.39875,0.0138 0.48125,0.0412 l 0,-2.3375 c -0.0825,-0.0138 -0.17875,-0.0275 -0.275,-0.0275 -1.05875,0 -1.9525,0.7975 -2.255,1.76 l -0.0275,0 c 0,0 0.0275,-0.20625 0.0275,-0.44 l 0,-1.19625 -2.2825,0 0,7.08125 z"
         style="font-style:normal;font-variant:normal;font-weight:bold;font-stretch:normal;font-size:13.75px;font-family:'Museo Sans Cyrl';-inkscape-font-specification:'Museo Sans Cyrl Bold';fill:#fcbb3f;fill-opacity:1"
         id="path20157" />
      <path
         d="m 332.10139,499.85354 c 0,1.88375 1.36125,3.7125 3.89125,3.7125 1.08625,0 2.255,-0.37125 3.025,-1.03125 l -0.88,-1.66375 c -0.5775,0.385 -1.25125,0.715 -1.9525,0.715 -0.75625,0 -1.47125,-0.39875 -1.65,-1.265 l 4.46875,0 c 0.0275,-0.2475 0.055,-0.495 0.055,-0.7425 0,-1.96625 -1.1825,-3.42375 -3.2725,-3.42375 -2.2825,0 -3.685,1.6225 -3.685,3.69875 z m 2.48875,-0.89375 c 0.12375,-0.56375 0.45375,-1.05875 1.14125,-1.05875 0.605,0 0.97625,0.48125 0.97625,1.05875 l -2.1175,0 z"
         style="font-style:normal;font-variant:normal;font-weight:bold;font-stretch:normal;font-size:13.75px;font-family:'Museo Sans Cyrl';-inkscape-font-specification:'Museo Sans Cyrl Bold';fill:#fcbb3f;fill-opacity:1"
         id="path20159" />
      <path
         d="m 340.79697,503.40104 2.37875,0 0,-5.10125 1.30625,0 0,-1.85625 -1.30625,0 0,-0.22 c 0,-0.605 0.72875,-0.6875 1.19625,-0.6875 0.17875,0 0.33,0.0137 0.385,0.0275 l 0,-2.0075 c -0.2475,-0.0412 -0.4675,-0.0412 -0.715,-0.0412 -1.14125,0 -3.245,0.31625 -3.245,2.64 l 0,0.28875 -0.86625,0 0,1.85625 0.86625,0 0,5.10125 z"
         style="font-style:normal;font-variant:normal;font-weight:bold;font-stretch:normal;font-size:13.75px;font-family:'Museo Sans Cyrl';-inkscape-font-specification:'Museo Sans Cyrl Bold';fill:#fcbb3f;fill-opacity:1"
         id="path20161" />
      <path
         d="m 345.40064,498.76729 6.9575,0 0,-1.7875 -6.9575,0 0,1.7875 z m 0,3.1625 6.9575,0 0,-1.7875 -6.9575,0 0,1.7875 z"
         style="font-style:normal;font-variant:normal;font-weight:bold;font-stretch:normal;font-size:13.75px;font-family:'Museo Sans Cyrl';-inkscape-font-specification:'Museo Sans Cyrl Bold';fill:#4d7c91;fill-opacity:1"
         id="path20163" />
      <path
         d="m 356.47777,496.66354 1.6775,0 0,-3.3 -1.6775,0 0,3.3 z m -2.62625,0 1.6775,0 0,-3.3 -1.6775,0 0,3.3 z"
         style="font-style:normal;font-variant:normal;font-weight:bold;font-stretch:normal;font-size:13.75px;font-family:'Museo Sans Cyrl';-inkscape-font-specification:'Museo Sans Cyrl Bold';fill:#4d7c91;fill-opacity:1"
         id="path20165" />
      <path
         d="m 359.19855,499.85354 c 0,1.9525 1.41625,3.7125 3.94625,3.7125 1.1825,0 2.3375,-0.45375 3.03875,-1.16875 l -0.86625,-1.66375 c -0.50875,0.44 -1.25125,0.8525 -1.93875,0.8525 -1.19625,0 -1.77375,-0.92125 -1.77375,-1.76 0,-0.83875 0.56375,-1.69125 1.69125,-1.69125 0.61875,0 1.25125,0.28875 1.66375,0.6875 l 1.00375,-1.595 c -0.70125,-0.75625 -1.82875,-1.0725 -2.81875,-1.0725 -2.54375,0 -3.94625,1.80125 -3.94625,3.69875 z"
         style="font-style:normal;font-variant:normal;font-weight:bold;font-stretch:normal;font-size:13.75px;font-family:'Museo Sans Cyrl';-inkscape-font-specification:'Museo Sans Cyrl Bold';fill:#34c749;fill-opacity:1"
         id="path20167" />
      <path
         d="m 366.66115,502.52104 c 0.78375,0.70125 1.87,1.045 2.8875,1.045 1.815,0 2.915,-1.00375 2.915,-2.32375 0,-2.29625 -3.31375,-2.1175 -3.31375,-2.86 0,-0.1925 0.15125,-0.34375 0.66,-0.34375 0.605,0 1.375,0.2475 1.7875,0.5775 l 0.81125,-1.65 c -0.715,-0.5775 -1.6225,-0.81125 -2.53,-0.81125 -1.63625,0 -2.9425,0.78375 -2.9425,2.24125 0,2.32375 3.31375,2.15875 3.31375,2.915 0,0.22 -0.165,0.37125 -0.64625,0.37125 -0.67375,0 -1.4025,-0.275 -1.925,-0.715 l -1.0175,1.55375 z"
         style="font-style:normal;font-variant:normal;font-weight:bold;font-stretch:normal;font-size:13.75px;font-family:'Museo Sans Cyrl';-inkscape-font-specification:'Museo Sans Cyrl Bold';fill:#34c749;fill-opacity:1"
         id="path20169" />
      <path
         d="m 373.13332,502.52104 c 0.78375,0.70125 1.87,1.045 2.8875,1.045 1.815,0 2.915,-1.00375 2.915,-2.32375 0,-2.29625 -3.31375,-2.1175 -3.31375,-2.86 0,-0.1925 0.15125,-0.34375 0.66,-0.34375 0.605,0 1.375,0.2475 1.7875,0.5775 l 0.81125,-1.65 c -0.715,-0.5775 -1.6225,-0.81125 -2.53,-0.81125 -1.63625,0 -2.9425,0.78375 -2.9425,2.24125 0,2.32375 3.31375,2.15875 3.31375,2.915 0,0.22 -0.165,0.37125 -0.64625,0.37125 -0.67375,0 -1.4025,-0.275 -1.925,-0.715 l -1.0175,1.55375 z"
         style="font-style:normal;font-variant:normal;font-weight:bold;font-stretch:normal;font-size:13.75px;font-family:'Museo Sans Cyrl';-inkscape-font-specification:'Museo Sans Cyrl Bold';fill:#34c749;fill-opacity:1"
         id="path20171" />
      <path
         d="m 379.70174,503.97854 1.98,0 3.52,-10.89 -1.98,0 -3.52,10.89 z"
         style="font-style:normal;font-variant:normal;font-weight:bold;font-stretch:normal;font-size:13.75px;font-family:'Museo Sans Cyrl';-inkscape-font-specification:'Museo Sans Cyrl Bold';fill:#34c749;fill-opacity:1"
         id="path20173" />
      <path
         d="m 386.13051,503.40104 2.37875,0 0,-2.9975 c 0,-0.97625 0.275,-2.09 1.36125,-2.09 0.45375,0 0.55,0.37125 0.55,0.89375 l 0,4.19375 2.37875,0 0,-2.9975 c 0,-1.05875 0.33,-2.09 1.36125,-2.09 0.45375,0 0.55,0.37125 0.55,0.89375 l 0,4.19375 2.37875,0 0,-4.5925 c 0,-1.9525 -1.00375,-2.65375 -2.29625,-2.65375 -1.05875,0 -1.8975,0.605 -2.26875,1.19625 l -0.0275,0 c -0.37125,-0.7975 -1.08625,-1.19625 -1.98,-1.19625 -1.11375,0 -1.77375,0.72875 -2.10375,1.22375 l -0.0275,0 c 0,0 0.0275,-0.20625 0.0275,-0.44 l 0,-0.61875 -2.2825,0 0,7.08125 z"
         style="font-style:normal;font-variant:normal;font-weight:bold;font-stretch:normal;font-size:13.75px;font-family:'Museo Sans Cyrl';-inkscape-font-specification:'Museo Sans Cyrl Bold';fill:#34c749;fill-opacity:1"
         id="path20175" />
      <path
         d="m 398.1233,501.40729 c 0,1.22375 0.94875,2.15875 2.31,2.15875 0.81125,0 1.63625,-0.37125 2.10375,-1.03125 l 0.0275,0 c 0,0 -0.0275,0.20625 -0.0275,0.44 l 0,0.42625 2.1725,0 0,-4.35875 c 0,-1.80125 -1.21,-2.8875 -3.1625,-2.8875 -1.155,0 -2.3925,0.45375 -2.9975,0.92125 l 0.825,1.6775 c 0.56375,-0.37125 1.265,-0.67375 1.9525,-0.67375 0.5225,0 1.00375,0.1925 1.00375,0.78375 l 0,0.12375 -0.20625,0 c -1.74625,0 -4.00125,0.5225 -4.00125,2.42 z m 2.35125,-0.22 c 0,-0.64625 0.935,-0.83875 1.66375,-0.83875 l 0.22,0 0,0.1925 c 0,0.5775 -0.5225,1.25125 -1.21,1.25125 -0.44,0 -0.67375,-0.275 -0.67375,-0.605 z"
         style="font-style:normal;font-variant:normal;font-weight:bold;font-stretch:normal;font-size:13.75px;font-family:'Museo Sans Cyrl';-inkscape-font-specification:'Museo Sans Cyrl Bold';fill:#34c749;fill-opacity:1"
         id="path20177" />
      <path
         d="m 406.2459,495.42604 2.32375,0 0,-1.85625 -2.32375,0 0,1.85625 z m -0.0275,7.975 2.37875,0 0,-7.08125 -2.37875,0 0,7.08125 z"
         style="font-style:normal;font-variant:normal;font-weight:bold;font-stretch:normal;font-size:13.75px;font-family:'Museo Sans Cyrl';-inkscape-font-specification:'Museo Sans Cyrl Bold';fill:#34c749;fill-opacity:1"
         id="path20179" />
      <path
         d="m 410.20676,503.40104 2.255,0 0,-2.255 -2.255,0 0,2.255 z"
         style="font-style:normal;font-variant:normal;font-weight:bold;font-stretch:normal;font-size:13.75px;font-family:'Museo Sans Cyrl';-inkscape-font-specification:'Museo Sans Cyrl Bold';fill:#34c749;fill-opacity:1"
         id="path20181" />
      <path
         d="m 414.07395,503.40104 2.255,0 0,-2.255 -2.255,0 0,2.255 z"
         style="font-style:normal;font-variant:normal;font-weight:bold;font-stretch:normal;font-size:13.75px;font-family:'Museo Sans Cyrl';-inkscape-font-specification:'Museo Sans Cyrl Bold';fill:#34c749;fill-opacity:1"
         id="path20183" />
    </g>
    <rect
       style="opacity:1;fill:#cccccc;fill-opacity:0.94117647;fill-rule:nonzero;stroke:none;stroke-width:3.33699989;stroke-linecap:round;stroke-linejoin:round;stroke-miterlimit:4;stroke-dasharray:none;stroke-opacity:1"
       id="rect19823"
       width="137"
       height="6"
       x="442"
       y="833.36218"
       rx="3.45947e-06"
       ry="3.45947e-06" />
    <rect
       ry="3.45947e-06"
       rx="3.4594702e-06"
       y="853.36218"
       x="442"
       height="6"
       width="113"
       id="rect19825"
       style="opacity:1;fill:#cccccc;fill-opacity:0.94117647;fill-rule:nonzero;stroke:none;stroke-width:3.33699989;stroke-linecap:round;stroke-linejoin:round;stroke-miterlimit:4;stroke-dasharray:none;stroke-opacity:1" />
    <rect
       style="opacity:1;fill:#cccccc;fill-opacity:0.94117647;fill-rule:nonzero;stroke:none;stroke-width:3.33699989;stroke-linecap:round;stroke-linejoin:round;stroke-miterlimit:4;stroke-dasharray:none;stroke-opacity:1"
       id="rect19827"
       width="128.5"
       height="6"
       x="442"
       y="873.36218"
       rx="3.45947e-06"
       ry="3.45947e-06" />
    <rect
       ry="3.45947e-06"
       rx="3.45947e-06"
       y="893.36218"
       x="442"
       height="6"
       width="137"
       id="rect19829"
       style="opacity:1;fill:#cccccc;fill-opacity:0.94117647;fill-rule:nonzero;stroke:none;stroke-width:3.33699989;stroke-linecap:round;stroke-linejoin:round;stroke-miterlimit:4;stroke-dasharray:none;stroke-opacity:1" />
    <rect
       style="opacity:1;fill:#cccccc;fill-opacity:0.94117647;fill-rule:nonzero;stroke:none;stroke-width:3.33699989;stroke-linecap:round;stroke-linejoin:round;stroke-miterlimit:4;stroke-dasharray:none;stroke-opacity:1"
       id="rect19831"
       width="121.5"
       height="6"
       x="442"
       y="913.36218"
       rx="3.4594698e-06"
       ry="3.45947e-06" />
    <rect
       ry="3.45947e-06"
       rx="3.45947e-06"
       y="933.36218"
       x="442"
       height="6"
       width="84.5"
       id="rect19833"
       style="opacity:1;fill:#cccccc;fill-opacity:0.94117647;fill-rule:nonzero;stroke:none;stroke-width:3.33699989;stroke-linecap:round;stroke-linejoin:round;stroke-miterlimit:4;stroke-dasharray:none;stroke-opacity:1" />
    <rect
       style="opacity:1;fill:#cccccc;fill-opacity:0.94117647;fill-rule:nonzero;stroke:none;stroke-width:3.33699989;stroke-linecap:round;stroke-linejoin:round;stroke-miterlimit:4;stroke-dasharray:none;stroke-opacity:1"
       id="rect19835"
       width="132.5"
       height="6"
       x="442"
       y="953.36218"
       rx="3.45947e-06"
       ry="3.45947e-06" />
    <rect
       ry="3.45947e-06"
       rx="3.4594702e-06"
       y="973.36218"
       x="442"
       height="6"
       width="108"
       id="rect19837"
       style="opacity:1;fill:#cccccc;fill-opacity:0.94117647;fill-rule:nonzero;stroke:none;stroke-width:3.33699989;stroke-linecap:round;stroke-linejoin:round;stroke-miterlimit:4;stroke-dasharray:none;stroke-opacity:1" />
    <rect
       style="opacity:1;fill:#cccccc;fill-opacity:0.94117647;fill-rule:nonzero;stroke:none;stroke-width:3.33699989;stroke-linecap:round;stroke-linejoin:round;stroke-miterlimit:4;stroke-dasharray:none;stroke-opacity:1"
       id="rect19839"
       width="123.5"
       height="6"
       x="442"
       y="993.36218"
       rx="3.45947e-06"
       ry="3.45947e-06" />
    <rect
       style="opacity:1;fill:#cccccc;fill-opacity:0.94117647;fill-rule:nonzero;stroke:none;stroke-width:3.33699989;stroke-linecap:round;stroke-linejoin:round;stroke-miterlimit:4;stroke-dasharray:none;stroke-opacity:1"
       id="rect19841"
       width="378"
       height="29"
       x="19"
       y="820.36218"
       rx="3.45947e-06"
       ry="3.45947e-06" />
    <rect
       style="opacity:1;fill:#4d7c91;fill-opacity:1;fill-rule:nonzero;stroke:none;stroke-width:3.33699989;stroke-linecap:round;stroke-linejoin:round;stroke-miterlimit:4;stroke-dasharray:none;stroke-opacity:1"
       id="rect19843"
       width="600"
       height="295.01547"
       x="0"
       y="499.83932"
       rx="3.4594698e-06"
       ry="3.45947e-06" />
    <g
       id="g19845"
       transform="translate(-9.944426,-0.96549189)">
      <circle
         r="24.831923"
         cy="648.31256"
         cx="62.776348"
         id="path19731"
         style="opacity:1;fill:#ffffff;fill-opacity:1;fill-rule:nonzero;stroke:none;stroke-width:0.99900001;stroke-linecap:round;stroke-linejoin:round;stroke-miterlimit:4;stroke-dasharray:none;stroke-opacity:1" />
      <path
         inkscape:connector-curvature="0"
         id="rect19733"
         d="m 65.870949,636.11599 a 1.6686668,1.6686668 0 0 0 -1.13086,0.48828 l -10.5293,10.5293 a 1.6686668,1.6686668 0 0 0 0,2.35937 l 10.5293,10.5293 a 1.6686668,1.6686668 0 0 0 2.84765,-1.17969 l 0,-0.67188 -9.847653,-9.84765 0.0098,-0.01 6.501958,-6.50195 3.33593,-3.33594 0,-0.6914 a 1.6686668,1.6686668 0 0 0 -1.71679,-1.66797 z"
         style="color:#000000;font-style:normal;font-variant:normal;font-weight:normal;font-stretch:normal;font-size:medium;line-height:normal;font-family:sans-serif;text-indent:0;text-align:start;text-decoration:none;text-decoration-line:none;text-decoration-style:solid;text-decoration-color:#000000;letter-spacing:normal;word-spacing:normal;text-transform:none;direction:ltr;block-progression:tb;writing-mode:lr-tb;baseline-shift:baseline;text-anchor:start;white-space:normal;clip-rule:nonzero;display:inline;overflow:visible;visibility:visible;opacity:1;isolation:auto;mix-blend-mode:normal;color-interpolation:sRGB;color-interpolation-filters:linearRGB;solid-color:#000000;solid-opacity:1;fill:#4d7c91;fill-opacity:1;fill-rule:nonzero;stroke:none;stroke-width:3.33699989;stroke-linecap:round;stroke-linejoin:round;stroke-miterlimit:4;stroke-dasharray:none;stroke-dashoffset:0;stroke-opacity:1;color-rendering:auto;image-rendering:auto;shape-rendering:auto;text-rendering:auto;enable-background:accumulate" />
    </g>
    <rect
       style="opacity:1;fill:#ffffff;fill-opacity:1;fill-rule:nonzero;stroke:none;stroke-width:0.99900001;stroke-linecap:round;stroke-linejoin:round;stroke-miterlimit:4;stroke-dasharray:none;stroke-opacity:1"
       id="rect19729"
       width="355.17264"
       height="172.37059"
       x="110.84776"
       y="554.61078"
       rx="3.45947e-06"
       ry="3.45947e-06" />
    <g
       transform="matrix(-1,0,0,1,609.94443,-0.96549988)"
       id="g19849">
      <circle
         style="opacity:1;fill:#ffffff;fill-opacity:1;fill-rule:nonzero;stroke:none;stroke-width:0.99900001;stroke-linecap:round;stroke-linejoin:round;stroke-miterlimit:4;stroke-dasharray:none;stroke-opacity:1"
         id="circle19851"
         cx="62.776348"
         cy="648.31256"
         r="24.831923" />
      <path
         style="color:#000000;font-style:normal;font-variant:normal;font-weight:normal;font-stretch:normal;font-size:medium;line-height:normal;font-family:sans-serif;text-indent:0;text-align:start;text-decoration:none;text-decoration-line:none;text-decoration-style:solid;text-decoration-color:#000000;letter-spacing:normal;word-spacing:normal;text-transform:none;direction:ltr;block-progression:tb;writing-mode:lr-tb;baseline-shift:baseline;text-anchor:start;white-space:normal;clip-rule:nonzero;display:inline;overflow:visible;visibility:visible;opacity:1;isolation:auto;mix-blend-mode:normal;color-interpolation:sRGB;color-interpolation-filters:linearRGB;solid-color:#000000;solid-opacity:1;fill:#4d7c91;fill-opacity:1;fill-rule:nonzero;stroke:none;stroke-width:3.33699989;stroke-linecap:round;stroke-linejoin:round;stroke-miterlimit:4;stroke-dasharray:none;stroke-dashoffset:0;stroke-opacity:1;color-rendering:auto;image-rendering:auto;shape-rendering:auto;text-rendering:auto;enable-background:accumulate"
         d="m 65.870949,636.11599 a 1.6686668,1.6686668 0 0 0 -1.13086,0.48828 l -10.5293,10.5293 a 1.6686668,1.6686668 0 0 0 0,2.35937 l 10.5293,10.5293 a 1.6686668,1.6686668 0 0 0 2.84765,-1.17969 l 0,-0.67188 -9.847653,-9.84765 0.0098,-0.01 6.501958,-6.50195 3.33593,-3.33594 0,-0.6914 a 1.6686668,1.6686668 0 0 0 -1.71679,-1.66797 z"
         id="path19853"
         inkscape:connector-curvature="0" />
    </g>
    <rect
       style="opacity:1;fill:#ffffff;fill-opacity:0.94117647;fill-rule:nonzero;stroke:none;stroke-width:3.33699989;stroke-linecap:round;stroke-linejoin:round;stroke-miterlimit:4;stroke-dasharray:none;stroke-opacity:1"
       id="rect19857"
       width="266"
       height="14.456345"
       x="167"
       y="468.87256"
       rx="4"
       ry="4" />
    <text
       xml:space="preserve"
       style="font-style:normal;font-weight:normal;font-size:40px;line-height:125%;font-family:sans-serif;letter-spacing:0px;word-spacing:0px;fill:#4d7c91;fill-opacity:1;stroke:none;stroke-width:1px;stroke-linecap:butt;stroke-linejoin:miter;stroke-opacity:1;"
       x="215.7722"
       y="669.39606"
       id="text19859"
       sodipodi:linespacing="125%"><tspan
         sodipodi:role="line"
         id="tspan19861"
         x="215.7722"
         y="669.39606"
         style="font-style:normal;font-variant:normal;font-weight:bold;font-stretch:normal;font-size:80px;font-family:'Museo Sans Cyrl';-inkscape-font-specification:'Museo Sans Cyrl Bold';fill:#4d7c91;fill-opacity:1;">DIV</tspan></text>
  </g>
</svg>
