<?xml version="1.0" encoding="UTF-8" standalone="no"?>
<!-- Created with Inkscape (http://www.inkscape.org/) -->

<svg
   xmlns:dc="http://purl.org/dc/elements/1.1/"
   xmlns:cc="http://creativecommons.org/ns#"
   xmlns:rdf="http://www.w3.org/1999/02/22-rdf-syntax-ns#"
   xmlns:svg="http://www.w3.org/2000/svg"
   xmlns="http://www.w3.org/2000/svg"
   xmlns:sodipodi="http://sodipodi.sourceforge.net/DTD/sodipodi-0.dtd"
   xmlns:inkscape="http://www.inkscape.org/namespaces/inkscape"
   width="48"
   height="48"
   viewBox="0 0 48 47.999999"
   id="svg2"
   version="1.1"
   inkscape:version="0.91 r13725"
   sodipodi:docname="drawing.svg">
  <defs
     id="defs4" />
  <sodipodi:namedview
     id="base"
     pagecolor="#ffffff"
     bordercolor="#666666"
     borderopacity="1.0"
     inkscape:pageopacity="0.0"
     inkscape:pageshadow="2"
     inkscape:zoom="11.2"
     inkscape:cx="46.031675"
     inkscape:cy="27.314351"
     inkscape:document-units="px"
     inkscape:current-layer="layer1"
     showgrid="false"
     inkscape:snap-bbox="true"
     inkscape:bbox-paths="true"
     inkscape:bbox-nodes="true"
     inkscape:snap-bbox-midpoints="true"
     inkscape:snap-bbox-edge-midpoints="true"
     inkscape:snap-intersection-paths="true"
     inkscape:snap-nodes="true"
     inkscape:object-paths="true"
     inkscape:object-nodes="true"
     inkscape:snap-smooth-nodes="true"
     inkscape:snap-midpoints="true"
     inkscape:snap-others="true"
     fit-margin-top="0"
     fit-margin-left="0"
     fit-margin-right="0"
     fit-margin-bottom="0"
     units="px"
     inkscape:window-width="1920"
     inkscape:window-height="1017"
     inkscape:window-x="1280"
     inkscape:window-y="30"
     inkscape:window-maximized="1" />
  <metadata
     id="metadata7">
    <rdf:RDF>
      <cc:Work
         rdf:about="">
        <dc:format>image/svg+xml</dc:format>
        <dc:type
           rdf:resource="http://purl.org/dc/dcmitype/StillImage" />
        <dc:title></dc:title>
      </cc:Work>
    </rdf:RDF>
  </metadata>
  <g
     inkscape:label="Layer 1"
     inkscape:groupmode="layer"
     id="layer1"
     transform="translate(-124.42219,-520.33049)">
    <g
       id="g7077"
       transform="translate(0.15075129,1.0097112)">
      <path
         sodipodi:nodetypes="cssssassc"
         inkscape:connector-curvature="0"
         id="path6238"
         d="m 126.53616,548.09615 c 0,0 0.0611,3.22497 1.20053,3.20143 3.27552,-0.0677 -0.19646,-9.61424 3.06805,-9.33752 3.89737,0.33037 -2.1108,10.88734 1.73411,11.6052 3.26913,0.61037 1.61848,-8.43205 4.93554,-8.67055 2.2755,-0.16361 1.92572,5.55652 4.20188,5.40242 2.87239,-0.19446 1.48296,-7.86078 4.33528,-7.47001 6.23457,0.85413 -1.55505,18.44508 4.73546,18.27485 4.26261,-0.11534 2.53447,-12.53895 2.53447,-12.53895"
         style="fill:none;fill-rule:evenodd;stroke:#c87137;stroke-width:1.95437634;stroke-linecap:round;stroke-linejoin:miter;stroke-miterlimit:4;stroke-dasharray:none;stroke-opacity:1" />
      <path
         inkscape:connector-curvature="0"
         id="rect7072"
         d="m 165.37021,526.03043 a 11.587913,11.587913 0 0 0 -8.64598,-1.0742 11.587913,11.587913 0 0 0 -0.25834,0.0791 c -0.18448,0.0778 -0.33142,0.21258 -0.42645,0.37718 l -5.3e-4,-2.6e-4 -6.61265,11.45345 14.8212,8.55702 6.56824,-11.37652 c 0.12134,-0.16869 0.18333,-0.37812 0.16557,-0.59441 a 11.587913,11.587913 0 0 0 -0.0648,-0.30158 11.587913,11.587913 0 0 0 -5.54633,-7.11973 z"
         style="fill:#a05a2c;fill-opacity:1;stroke:none;stroke-width:9.10000038;stroke-linecap:round;stroke-miterlimit:4;stroke-dasharray:none" />
      <path
         inkscape:connector-curvature="0"
         id="rect7040"
         d="m 163.75107,545.7577 c 0.42531,-0.11396 0.69468,-0.51242 0.65995,-0.9356 a 11.587913,11.587913 0 0 0 -0.0649,-0.30149 11.587913,11.587913 0 0 0 -14.19232,-8.19394 11.587913,11.587913 0 0 0 -0.25825,0.0792 c -0.40604,0.17112 -0.63295,0.61664 -0.51556,1.05475 l 2.80532,10.4696 c 0.12832,0.4789 0.61723,0.76117 1.09614,0.63285 l 10.46959,-2.80532 z"
         style="fill:#784421;stroke:none;stroke-width:9.10000038;stroke-linecap:round;stroke-miterlimit:4;stroke-dasharray:none" />
      <path
         inkscape:connector-curvature="0"
         id="path7056"
         d="m 160.0771,546.74214 a 7.9302512,7.9302512 0 0 0 -9.71264,-5.6076 l 1.82088,6.79563 c 0.12832,0.4789 0.61723,0.76117 1.09614,0.63285 l 6.79562,-1.82088 z"
         style="fill:#c87137;fill-opacity:1;stroke:none;stroke-width:9.10000038;stroke-linecap:round;stroke-miterlimit:4;stroke-dasharray:none" />
    </g>
  </g>
</svg>
