<?xml version="1.0" encoding="UTF-8" standalone="no"?>
<!-- Created with Inkscape (http://www.inkscape.org/) -->

<svg
   xmlns:dc="http://purl.org/dc/elements/1.1/"
   xmlns:cc="http://creativecommons.org/ns#"
   xmlns:rdf="http://www.w3.org/1999/02/22-rdf-syntax-ns#"
   xmlns:svg="http://www.w3.org/2000/svg"
   xmlns="http://www.w3.org/2000/svg"
   xmlns:sodipodi="http://sodipodi.sourceforge.net/DTD/sodipodi-0.dtd"
   xmlns:inkscape="http://www.inkscape.org/namespaces/inkscape"
   width="48"
   height="48"
   viewBox="0 0 48 47.999999"
   id="svg2"
   version="1.1"
   inkscape:version="0.91 r13725"
   sodipodi:docname="logo-white.svg">
  <defs
     id="defs4" />
  <sodipodi:namedview
     id="base"
     pagecolor="#ffffff"
     bordercolor="#666666"
     borderopacity="1.0"
     inkscape:pageopacity="0.0"
     inkscape:pageshadow="2"
     inkscape:zoom="11.2"
     inkscape:cx="28.689665"
     inkscape:cy="26.76624"
     inkscape:document-units="px"
     inkscape:current-layer="layer1"
     showgrid="false"
     inkscape:snap-bbox="true"
     inkscape:bbox-paths="true"
     inkscape:bbox-nodes="true"
     inkscape:snap-bbox-midpoints="true"
     inkscape:snap-bbox-edge-midpoints="true"
     inkscape:snap-intersection-paths="true"
     inkscape:snap-nodes="true"
     inkscape:object-paths="true"
     inkscape:object-nodes="true"
     inkscape:snap-smooth-nodes="true"
     inkscape:snap-midpoints="true"
     inkscape:snap-others="true"
     fit-margin-top="0"
     fit-margin-left="0"
     fit-margin-right="0"
     fit-margin-bottom="0"
     units="px"
     inkscape:window-width="1366"
     inkscape:window-height="705"
     inkscape:window-x="1440"
     inkscape:window-y="489"
     inkscape:window-maximized="1" />
  <metadata
     id="metadata7">
    <rdf:RDF>
      <cc:Work
         rdf:about="">
        <dc:format>image/svg+xml</dc:format>
        <dc:type
           rdf:resource="http://purl.org/dc/dcmitype/StillImage" />
        <dc:title />
      </cc:Work>
    </rdf:RDF>
  </metadata>
  <g
     inkscape:label="Layer 1"
     inkscape:groupmode="layer"
     id="layer1"
     transform="translate(-124.42219,-520.33049)">
    <g
       id="g7077"
       transform="translate(1.8155926,-1.2470893)">
      <path
         sodipodi:nodetypes="cssssassc"
         inkscape:connector-curvature="0"
         id="path6238"
         d="m 126.53616,548.09615 c 0,0 0.0611,3.22497 1.20053,3.20143 3.27552,-0.0677 -0.19646,-9.61424 3.06805,-9.33752 3.89737,0.33037 -2.1108,10.88734 1.73411,11.6052 3.26913,0.61037 1.61848,-8.43205 4.93554,-8.67055 2.2755,-0.16361 1.92572,5.55652 4.20188,5.40242 2.87239,-0.19446 1.48296,-7.86078 4.33528,-7.47001 6.23457,0.85413 -1.55505,18.44508 4.73546,18.27485 4.26261,-0.11534 2.53447,-12.53895 2.53447,-12.53895"
         style="fill:none;fill-rule:evenodd;stroke:#ffffff;stroke-width:1.95437634;stroke-linecap:round;stroke-linejoin:miter;stroke-miterlimit:4;stroke-dasharray:none;stroke-opacity:1" />
      <g
         id="g7040">
        <path
           style="fill:#ffffff;fill-opacity:1;stroke:none;stroke-width:9.10000038;stroke-linecap:round;stroke-miterlimit:4;stroke-dasharray:none"
           d="m 158.59728,529.07539 a 9.408481,9.408481 0 0 0 -2.51981,0.32033 9.408481,9.408481 0 0 0 -0.20932,0.065 c -0.14976,0.0632 -0.27013,0.17243 -0.34729,0.30606 l -5.34409,9.25464 c -0.005,0.009 -0.0111,0.0176 -0.0159,0.027 l -0.01,0.0175 0.005,0.003 c -0.0647,0.14599 -0.0859,0.31348 -0.0412,0.4805 l 2.27718,8.4998 c 0.10419,0.38883 0.5008,0.61798 0.88963,0.5138 l 8.5014,-2.27719 c 0.16796,-0.045 0.30381,-0.14588 0.39803,-0.27593 l 0.005,0.003 5.33299,-9.23719 c 0.0985,-0.13699 0.14762,-0.30648 0.13321,-0.48208 a 9.408481,9.408481 0 0 0 -0.0523,-0.24421 9.408481,9.408481 0 0 0 -4.50204,-5.78178 9.408481,9.408481 0 0 0 -4.50046,-1.1925 z"
           id="rect7072"
           inkscape:connector-curvature="0" />
      </g>
    </g>
  </g>
</svg>
